<svg xmlns="http://www.w3.org/2000/svg" viewBox="3233 5289 125 125">
  <defs>
    <style>
      .cls-1 {
        fill: #8e8e8e;
      }

      .cls-2 {
        fill: #4a4a4a;
      }

      .cls-3, .cls-5 {
        fill: none;
      }

      .cls-3 {
        stroke: #171717;
        stroke-width: 2px;
      }

      .cls-4 {
        stroke: none;
      }
    </style>
  </defs>
  <g id="Icon" transform="translate(3269.325 5328.424)">
    <path id="Path_78" data-name="Path 78" class="cls-1" d="M20.434,209.132l1.576-2.548a1.288,1.288,0,1,0-2.193-1.353l-1.576,2.548c-2.863,4.61-6.934,7.262-11.2,7.262H1.287a1.287,1.287,0,1,0,0,2.574H7.052c5.174-.026,10.047-3.112,13.382-8.484Zm0,0" transform="translate(0 -177.701)"/>
    <path id="Path_79" data-name="Path 79" class="cls-1" d="M226.933,6.675,220.695.424a1.282,1.282,0,0,0-1.812,1.812l4.058,4.058h-5.975c-5.174,0-10.06,3.086-13.382,8.471l-.972,1.563a1.285,1.285,0,0,0,.42,1.773,1.259,1.259,0,0,0,.67.184,1.288,1.288,0,0,0,1.09-.6l.972-1.563c2.863-4.61,6.934-7.249,11.2-7.249h5.962l-4.058,4.058a1.287,1.287,0,0,0,.919,2.193,1.315,1.315,0,0,0,.919-.381l6.251-6.251a1.284,1.284,0,0,0-.026-1.812Zm-2.745.919V7.555l.026.026Zm0,0" transform="translate(-175.833)"/>
    <path id="Path_80" data-name="Path 80" class="cls-2" d="M43.036,87.077a1.292,1.292,0,0,0,.919.381,1.315,1.315,0,0,0,.919-.381l6.251-6.251a1.284,1.284,0,0,0,0-1.812l-6.251-6.238a1.281,1.281,0,1,0-1.812,1.812l4.058,4.058H41.329c-4.255,0-8.339-2.653-11.2-7.262L20.645,56.071c-3.336-5.4-8.221-8.471-13.4-8.471H1.287a1.287,1.287,0,0,0,0,2.574H7.249c4.255,0,8.339,2.653,11.2,7.249L27.92,72.736C31.256,78.12,36.141,81.22,41.3,81.22h5.792l-4.058,4.058a1.268,1.268,0,0,0,0,1.8Zm5.319-7.184.026.026-.026.026Zm0,0" transform="translate(0 -41.305)"/>
    <g id="Base" class="cls-3" transform="translate(-36.325 -39.424)">
      <circle class="cls-4" cx="62.5" cy="62.5" r="62.5"/>
      <circle class="cls-5" cx="62.5" cy="62.5" r="61.5"/>
    </g>
  </g>
</svg>
