<?xml version="1.0" encoding="utf-8"?>
<!-- Generator: Adobe Illustrator 22.1.0, SVG Export Plug-In . SVG Version: 6.00 Build 0)  -->
<svg version="1.1" id="Layer_1" xmlns="http://www.w3.org/2000/svg" xmlns:xlink="http://www.w3.org/1999/xlink" x="0px" y="0px"
	 viewBox="0 0 606.5 394.9" style="enable-background:new 0 0 606.5 394.9;" xml:space="preserve">
<style type="text/css">
	.st0{display:none;fill:#171717;}
	.st1{display:none;}
	.st2{display:inline;}
	.st3{fill:none;stroke:#2B2B2B;stroke-miterlimit:10;}
	.st4{fill:none;stroke:#2B2B2B;stroke-miterlimit:10;stroke-dasharray:3.0024,3.0024;}
	.st5{fill:none;stroke:#2B2B2B;stroke-miterlimit:10;stroke-dasharray:3.0198,3.0198;}
	.st6{fill:none;stroke:#2B2B2B;stroke-miterlimit:10;stroke-dasharray:2.9207,2.9207;}
	.st7{fill:url(#SVGID_1_);}
	.st8{fill:url(#SVGID_2_);}
	.st9{fill:none;stroke:#707070;stroke-miterlimit:10;}
	.st10{fill:#2C2C2C;}
	.st11{fill:#FFFDF3;}
	.st12{font-family:'SourceSerifPro-Regular';}
	.st13{font-size:14.7124px;}
	.st14{fill:url(#SVGID_3_);}
	.st15{fill:#707070;}
	.st16{font-size:15.0749px;}
	.st17{fill:#171717;}
</style>
<rect x="-81.7" y="-100.4" class="st0" width="841.9" height="595.3"/>
<g class="st1">
	<g class="st2">
		<polyline class="st3" points="182.1,392.1 182.1,393.6 180.6,393.6 		"/>
		<line class="st4" x1="177.6" y1="393.6" x2="5" y2="393.6"/>
		<polyline class="st3" points="3.5,393.6 2,393.6 2,392.1 		"/>
		<line class="st5" x1="2" y1="389" x2="2" y2="4"/>
		<polyline class="st3" points="2,2.5 2,1 3.5,1 		"/>
		<line class="st4" x1="6.5" y1="1" x2="179.1" y2="1"/>
		<polyline class="st3" points="180.6,1 182.1,1 182.1,2.5 		"/>
		<line class="st5" x1="182.1" y1="5.5" x2="182.1" y2="390.5"/>
	</g>
</g>
<g class="st1">
	<g class="st2">
		<polyline class="st3" points="392.5,392.1 392.5,393.6 391,393.6 		"/>
		<line class="st4" x1="388" y1="393.6" x2="215.4" y2="393.6"/>
		<polyline class="st3" points="213.9,393.6 212.4,393.6 212.4,392.1 		"/>
		<line class="st5" x1="212.4" y1="389" x2="212.4" y2="4"/>
		<polyline class="st3" points="212.4,2.5 212.4,1 213.9,1 		"/>
		<line class="st4" x1="216.9" y1="1" x2="389.5" y2="1"/>
		<polyline class="st3" points="391,1 392.5,1 392.5,2.5 		"/>
		<line class="st5" x1="392.5" y1="5.5" x2="392.5" y2="390.5"/>
	</g>
</g>
<g class="st1">
	<g class="st2">
		<polyline class="st3" points="534,392.1 534,393.6 532.5,393.6 		"/>
		<line class="st6" x1="529.6" y1="393.6" x2="425.9" y2="393.6"/>
		<polyline class="st3" points="424.4,393.6 422.9,393.6 422.9,392.1 		"/>
		<line class="st5" x1="422.9" y1="389" x2="422.9" y2="4"/>
		<polyline class="st3" points="422.9,2.5 422.9,1 424.4,1 		"/>
		<line class="st6" x1="427.4" y1="1" x2="531" y2="1"/>
		<polyline class="st3" points="532.5,1 534,1 534,2.5 		"/>
		<line class="st5" x1="534" y1="5.5" x2="534" y2="390.5"/>
	</g>
</g>
<g class="st1">
	<g class="st2">
		<polyline class="st3" points="676.5,392.1 676.5,393.6 675,393.6 		"/>
		<line class="st6" x1="672.1" y1="393.6" x2="568.4" y2="393.6"/>
		<polyline class="st3" points="566.9,393.6 565.4,393.6 565.4,392.1 		"/>
		<line class="st5" x1="565.4" y1="389" x2="565.4" y2="4"/>
		<polyline class="st3" points="565.4,2.5 565.4,1 566.9,1 		"/>
		<line class="st6" x1="569.8" y1="1" x2="673.5" y2="1"/>
		<polyline class="st3" points="675,1 676.5,1 676.5,2.5 		"/>
		<line class="st5" x1="676.5" y1="5.5" x2="676.5" y2="390.5"/>
	</g>
</g>
<linearGradient id="SVGID_1_" gradientUnits="userSpaceOnUse" x1="301.95" y1="998.5244" x2="301.95" y2="605.9244" gradientTransform="matrix(1 0 0 1 0 -604.7244)">
	<stop  offset="0" style="stop-color:#171717"/>
	<stop  offset="0.4996" style="stop-color:#212121"/>
	<stop  offset="0.9996" style="stop-color:#171717"/>
</linearGradient>
<rect x="211.9" y="1.2" class="st7" width="180.1" height="392.6"/>
<linearGradient id="SVGID_2_" gradientUnits="userSpaceOnUse" x1="513.65" y1="998.5244" x2="513.65" y2="605.9244" gradientTransform="matrix(1 0 0 1 0 -604.7244)">
	<stop  offset="0" style="stop-color:#171717"/>
	<stop  offset="0.4996" style="stop-color:#212121"/>
	<stop  offset="0.9996" style="stop-color:#171717"/>
</linearGradient>
<rect x="422.2" y="1.2" class="st8" width="182.9" height="392.6"/>
<g>
	<circle class="st9" cx="301.9" cy="220.2" r="70.9"/>
	<circle class="st10" cx="301.9" cy="220.2" r="61.3"/>
	<text transform="matrix(1 0 0 1 276.4686 223.098)" class="st11 st12 st13">Council</text>
</g>
<linearGradient id="SVGID_3_" gradientUnits="userSpaceOnUse" x1="91.45" y1="998.5244" x2="91.45" y2="605.9244" gradientTransform="matrix(1 0 0 1 0 -604.7244)">
	<stop  offset="0" style="stop-color:#171717"/>
	<stop  offset="0.4996" style="stop-color:#212121"/>
	<stop  offset="0.9996" style="stop-color:#171717"/>
</linearGradient>
<rect x="1.4" y="1.2" class="st14" width="180.1" height="392.6"/>
<text transform="matrix(1 0 0 1 50.951 37.3021)" class="st15 st12 st16">MLN Token</text>
<text transform="matrix(1 0 0 1 63.851 55.4021)" class="st15 st12 st16">Holders</text>
<text transform="matrix(1 0 0 1 275.0901 37.3021)" class="st15 st12 st16">Council</text>
<text transform="matrix(1 0 0 1 484.2615 37.3021)" class="st15 st12 st16">Decision</text>
<g>
	<circle class="st9" cx="90.8" cy="220.2" r="70.9"/>
	<g>
		<circle class="st17" cx="83.2" cy="195.3" r="27.8"/>
		<g>
			<g>
				<path class="st11" d="M76.8,190.1c-0.3-0.8-0.6-1.4-1-1.8c-0.4-0.4-0.9-0.6-1.5-0.6h-0.5c0.5,0.2,0.9,0.5,1.2,0.8
					c0.3,0.4,0.6,0.9,0.9,1.7l5.9,14c0.2-0.3,0.3-0.6,0.3-0.9c0-0.2-0.1-0.6-0.3-1L76.8,190.1z"/>
				<path class="st11" d="M88.2,204.3h0.4c0.6,0,1-0.2,1.1-0.5s0.2-0.9,0.2-1.7v-12.3c0-1,0.1-1.7,0.2-2c-0.3,0-0.6,0.1-0.7,0.3
					s-0.2,0.4-0.3,0.7c0,0.3-0.1,0.8-0.1,1.4v12.3c0,0.6-0.1,1-0.2,1.3C88.8,203.8,88.6,204.1,88.2,204.3z"/>
				<path class="st11" d="M83.2,174.6c-11.4,0-20.7,9.3-20.7,20.7S71.8,216,83.2,216s20.7-9.3,20.7-20.7
					C103.9,183.9,94.6,174.6,83.2,174.6z M94.4,187.7c-0.9,0-1.5,0.1-1.8,0.3s-0.6,0.5-0.6,0.9c-0.1,0.4-0.1,1.1-0.1,2.2v11
					c0,0.6,0.1,1,0.2,1.3s0.4,0.5,0.7,0.6c0.3,0.1,0.9,0.2,1.6,0.2v0.7h-8.2v-0.7c0.8,0,1.4-0.1,1.8-0.3s0.6-0.5,0.6-0.8
					c0.1-0.3,0.1-0.9,0.1-1.6v-12.3L82.4,205h-0.7l-6.2-15.2v10.4c0,1.2,0.2,2.1,0.7,2.7c0.4,0.7,1.2,1.1,2.2,1.3v0.7H72v-0.7
					c0.9-0.1,1.6-0.4,2.1-1.1c0.5-0.6,0.7-1.5,0.7-2.6v-11.8c-0.3-0.4-0.8-0.7-1.2-0.9c-0.5-0.2-1-0.3-1.6-0.2V187h5.8l5.7,13.6
					l5.6-13.6h5.5v0.7H94.4z"/>
				<path class="st11" d="M74.8,202.6c-0.1,0.3-0.3,0.7-0.6,0.9c-0.3,0.3-0.6,0.5-1,0.7H76c-0.3-0.2-0.6-0.4-0.7-0.7
					C75.1,203.3,74.9,203,74.8,202.6z"/>
			</g>
			<g>
				<g>
					<path class="st11" d="M83.2,218.5c-12.8,0-23.2-10.4-23.2-23.2s10.4-23.2,23.2-23.2s23.2,10.4,23.2,23.2
						C106.3,208.1,96,218.5,83.2,218.5z M83.2,173.1c-12.3,0-22.2,10-22.2,22.2c0,12.3,10,22.2,22.2,22.2c12.3,0,22.2-10,22.2-22.2
						C105.4,183,95.4,173.1,83.2,173.1z"/>
				</g>
			</g>
		</g>
	</g>
	<g>
		<circle class="st17" cx="111" cy="217.6" r="27.8"/>
		<g>
			<g>
				<path class="st11" d="M104.6,212.4c-0.3-0.8-0.6-1.4-1-1.8c-0.4-0.4-0.9-0.6-1.5-0.6h-0.5c0.5,0.2,0.9,0.5,1.2,0.8
					c0.3,0.4,0.6,0.9,0.9,1.7l5.9,14c0.2-0.3,0.3-0.6,0.3-0.9c0-0.2-0.1-0.6-0.3-1L104.6,212.4z"/>
				<path class="st11" d="M116,226.6h0.4c0.6,0,1-0.2,1.1-0.5s0.2-0.9,0.2-1.7v-12.3c0-1,0.1-1.7,0.2-2c-0.3,0-0.6,0.1-0.7,0.3
					s-0.2,0.4-0.3,0.7c0,0.3-0.1,0.8-0.1,1.4v12.3c0,0.6-0.1,1-0.2,1.3C116.6,226.2,116.4,226.4,116,226.6z"/>
				<path class="st11" d="M111,196.9c-11.4,0-20.7,9.3-20.7,20.7s9.3,20.7,20.7,20.7s20.7-9.3,20.7-20.7S122.4,196.9,111,196.9z
					 M122.2,210c-0.9,0-1.5,0.1-1.8,0.3s-0.6,0.5-0.6,0.9c-0.1,0.4-0.1,1.1-0.1,2.2v11c0,0.6,0.1,1,0.2,1.3s0.4,0.5,0.7,0.6
					c0.3,0.1,0.9,0.2,1.6,0.2v0.7H114v-0.7c0.8,0,1.4-0.1,1.8-0.3s0.6-0.5,0.6-0.8c0.1-0.3,0.1-0.9,0.1-1.6v-12.3l-6.3,15.7h-0.7
					l-6.2-15.2v10.4c0,1.2,0.2,2.1,0.7,2.7c0.4,0.7,1.2,1.1,2.2,1.3v0.7h-6.4v-0.7c0.9-0.1,1.6-0.4,2.1-1.1c0.5-0.6,0.7-1.5,0.7-2.6
					v-11.8c-0.3-0.4-0.8-0.7-1.2-0.9c-0.5-0.2-1-0.3-1.6-0.2v-0.7h5.8l5.7,13.6l5.6-13.6h5.5v0.9L122.2,210L122.2,210z"/>
				<path class="st11" d="M102.6,224.9c-0.1,0.3-0.3,0.7-0.6,0.9c-0.3,0.3-0.6,0.5-1,0.7h2.7c-0.3-0.2-0.6-0.4-0.7-0.7
					C102.9,225.6,102.7,225.3,102.6,224.9z"/>
			</g>
			<g>
				<g>
					<path class="st11" d="M111,240.8c-12.8,0-23.2-10.4-23.2-23.2s10.4-23.2,23.2-23.2s23.2,10.4,23.2,23.2
						C134.1,230.4,123.8,240.8,111,240.8z M111,195.4c-12.3,0-22.2,10-22.2,22.2c0,12.3,10,22.2,22.2,22.2c12.3,0,22.2-10,22.2-22.2
						S123.2,195.4,111,195.4z"/>
				</g>
			</g>
		</g>
	</g>
	<g>
		<circle class="st17" cx="82.6" cy="241.3" r="27.8"/>
		<g>
			<g>
				<path class="st11" d="M76.2,236c-0.3-0.8-0.6-1.4-1-1.8c-0.4-0.4-0.9-0.6-1.5-0.6h-0.5c0.5,0.2,0.9,0.5,1.2,0.8
					c0.3,0.4,0.6,0.9,0.9,1.7l5.9,14c0.2-0.3,0.3-0.6,0.3-0.9c0-0.2-0.1-0.6-0.3-1L76.2,236z"/>
				<path class="st11" d="M87.6,250.2H88c0.6,0,1-0.2,1.1-0.5s0.2-0.9,0.2-1.7v-12.3c0-1,0.1-1.7,0.2-2c-0.3,0-0.6,0.1-0.7,0.3
					s-0.2,0.4-0.3,0.7c0,0.3-0.1,0.8-0.1,1.4v12.3c0,0.6-0.1,1-0.2,1.3C88.2,249.8,88,250,87.6,250.2z"/>
				<path class="st11" d="M82.6,220.5c-11.4,0-20.7,9.3-20.7,20.7s9.3,20.7,20.7,20.7s20.7-9.3,20.7-20.7S94,220.5,82.6,220.5z
					 M93.8,233.7c-0.9,0-1.5,0.1-1.8,0.3s-0.6,0.5-0.6,0.9c-0.1,0.4-0.1,1.1-0.1,2.2v11c0,0.6,0.1,1,0.2,1.3s0.4,0.5,0.7,0.6
					c0.3,0.1,0.9,0.2,1.6,0.2v0.7h-8.2v-0.7c0.8,0,1.4-0.1,1.8-0.3s0.6-0.5,0.6-0.8c0.1-0.3,0.1-0.9,0.1-1.6v-12.3l-6.3,15.7H81
					l-6.2-15.2v10.4c0,1.2,0.2,2.1,0.7,2.7c0.4,0.7,1.2,1.1,2.2,1.3v0.7h-6.4v-0.7c0.9-0.1,1.6-0.4,2.1-1.1c0.5-0.6,0.7-1.5,0.7-2.6
					v-11.8c-0.3-0.4-0.8-0.7-1.2-0.9c-0.5-0.2-1-0.3-1.6-0.2V233H77l5.7,13.6l5.6-13.6h5.5C93.8,233,93.8,233.7,93.8,233.7z"/>
				<path class="st11" d="M74.2,248.6c-0.1,0.3-0.3,0.7-0.6,0.9c-0.3,0.3-0.6,0.5-1,0.7h2.7c-0.3-0.2-0.6-0.4-0.7-0.7
					C74.4,249.3,74.3,248.9,74.2,248.6z"/>
			</g>
			<g>
				<g>
					<path class="st11" d="M82.6,264.4c-12.8,0-23.2-10.4-23.2-23.2S69.8,218,82.6,218s23.2,10.4,23.2,23.2
						C105.7,254,95.3,264.4,82.6,264.4z M82.6,219c-12.3,0-22.2,10-22.2,22.2c0,12.3,10,22.2,22.2,22.2c12.3,0,22.2-10,22.2-22.2
						S94.8,219,82.6,219z"/>
				</g>
			</g>
		</g>
	</g>
</g>
<g>
	<line class="st9" x1="161.9" y1="220.2" x2="219.7" y2="220.2"/>
	<polygon class="st15" points="219.7,225.2 219.7,215.1 224.8,220.2 	"/>
</g>
<g>
	<line class="st9" x1="337.9" y1="158.8" x2="432.5" y2="110.8"/>
	<polygon class="st15" points="433.7,115.3 429.1,106.3 435.9,108.5 	"/>
</g>
<g>
	<line class="st9" x1="337.9" y1="280.5" x2="432.5" y2="328.6"/>
	<polygon class="st15" points="433.7,324.1 429.1,333.1 435.9,330.9 	"/>
</g>
</svg>
