<?xml version="1.0" encoding="utf-8"?>
<!-- Generator: Adobe Illustrator 22.1.0, SVG Export Plug-In . SVG Version: 6.00 Build 0)  -->
<svg version="1.1" id="Layer_1" xmlns="http://www.w3.org/2000/svg" xmlns:xlink="http://www.w3.org/1999/xlink" x="0px" y="0px"
	 viewBox="0 0 606.5 323" style="enable-background:new 0 0 606.5 323;" xml:space="preserve">
<style type="text/css">
	.st0{display:none;fill:#171717;}
	.st1{display:none;}
	.st2{display:inline;}
	.st3{fill:none;stroke:#2B2B2B;stroke-miterlimit:10;}
	.st4{fill:none;stroke:#2B2B2B;stroke-miterlimit:10;stroke-dasharray:3.0024,3.0024;}
	.st5{fill:none;stroke:#2B2B2B;stroke-miterlimit:10;stroke-dasharray:3.0198,3.0198;}
	.st6{fill:none;stroke:#2B2B2B;stroke-miterlimit:10;stroke-dasharray:2.9207,2.9207;}
	.st7{fill:url(#SVGID_1_);}
	.st8{fill:url(#SVGID_2_);}
	.st9{fill:url(#SVGID_3_);}
	.st10{fill:#707070;}
	.st11{font-family:'SourceSerifPro-Regular';}
	.st12{font-size:15.0749px;}
	.st13{fill:none;stroke:#707070;stroke-miterlimit:10;}
	.st14{fill:#2C2C2C;}
	.st15{fill:#FFFDF3;}
	.st16{font-size:14.7124px;}
	.st17{fill:#171717;}
</style>
<rect x="-81.7" y="-100.4" class="st0" width="841.9" height="595.3"/>
<g class="st1">
	<g class="st2">
		<polyline class="st3" points="182.1,392.1 182.1,393.6 180.6,393.6 		"/>
		<line class="st4" x1="177.6" y1="393.6" x2="5" y2="393.6"/>
		<polyline class="st3" points="3.5,393.6 2,393.6 2,392.1 		"/>
		<line class="st5" x1="2" y1="389" x2="2" y2="4"/>
		<polyline class="st3" points="2,2.5 2,1 3.5,1 		"/>
		<line class="st4" x1="6.5" y1="1" x2="179.1" y2="1"/>
		<polyline class="st3" points="180.6,1 182.1,1 182.1,2.5 		"/>
		<line class="st5" x1="182.1" y1="5.5" x2="182.1" y2="390.5"/>
	</g>
</g>
<g class="st1">
	<g class="st2">
		<polyline class="st3" points="392.5,392.1 392.5,393.6 391,393.6 		"/>
		<line class="st4" x1="388" y1="393.6" x2="215.4" y2="393.6"/>
		<polyline class="st3" points="213.9,393.6 212.4,393.6 212.4,392.1 		"/>
		<line class="st5" x1="212.4" y1="389" x2="212.4" y2="4"/>
		<polyline class="st3" points="212.4,2.5 212.4,1 213.9,1 		"/>
		<line class="st4" x1="216.9" y1="1" x2="389.5" y2="1"/>
		<polyline class="st3" points="391,1 392.5,1 392.5,2.5 		"/>
		<line class="st5" x1="392.5" y1="5.5" x2="392.5" y2="390.5"/>
	</g>
</g>
<g class="st1">
	<g class="st2">
		<polyline class="st3" points="534,392.1 534,393.6 532.5,393.6 		"/>
		<line class="st6" x1="529.6" y1="393.6" x2="425.9" y2="393.6"/>
		<polyline class="st3" points="424.4,393.6 422.9,393.6 422.9,392.1 		"/>
		<line class="st5" x1="422.9" y1="389" x2="422.9" y2="4"/>
		<polyline class="st3" points="422.9,2.5 422.9,1 424.4,1 		"/>
		<line class="st6" x1="427.4" y1="1" x2="531" y2="1"/>
		<polyline class="st3" points="532.5,1 534,1 534,2.5 		"/>
		<line class="st5" x1="534" y1="5.5" x2="534" y2="390.5"/>
	</g>
</g>
<g class="st1">
	<g class="st2">
		<polyline class="st3" points="676.5,392.1 676.5,393.6 675,393.6 		"/>
		<line class="st6" x1="672.1" y1="393.6" x2="568.4" y2="393.6"/>
		<polyline class="st3" points="566.9,393.6 565.4,393.6 565.4,392.1 		"/>
		<line class="st5" x1="565.4" y1="389" x2="565.4" y2="4"/>
		<polyline class="st3" points="565.4,2.5 565.4,1 566.9,1 		"/>
		<line class="st6" x1="569.8" y1="1" x2="673.5" y2="1"/>
		<polyline class="st3" points="675,1 676.5,1 676.5,2.5 		"/>
		<line class="st5" x1="676.5" y1="5.5" x2="676.5" y2="390.5"/>
	</g>
</g>
<linearGradient id="SVGID_1_" gradientUnits="userSpaceOnUse" x1="301.95" y1="-531.7244" x2="301.95" y2="-209.9244" gradientTransform="matrix(1 0 0 -1 0 -208.7244)">
	<stop  offset="0" style="stop-color:#171717"/>
	<stop  offset="0.4996" style="stop-color:#212121"/>
	<stop  offset="0.9996" style="stop-color:#171717"/>
</linearGradient>
<rect x="211.9" y="1.2" class="st7" width="180.1" height="321.8"/>
<linearGradient id="SVGID_2_" gradientUnits="userSpaceOnUse" x1="513.65" y1="-531.7244" x2="513.65" y2="-209.9244" gradientTransform="matrix(1 0 0 -1 0 -208.7244)">
	<stop  offset="0" style="stop-color:#171717"/>
	<stop  offset="0.4996" style="stop-color:#212121"/>
	<stop  offset="0.9996" style="stop-color:#171717"/>
</linearGradient>
<rect x="422.2" y="1.2" class="st8" width="182.9" height="321.8"/>
<linearGradient id="SVGID_3_" gradientUnits="userSpaceOnUse" x1="91.45" y1="-531.7244" x2="91.45" y2="-209.9244" gradientTransform="matrix(1 0 0 -1 0 -208.7244)">
	<stop  offset="0" style="stop-color:#171717"/>
	<stop  offset="0.4996" style="stop-color:#212121"/>
	<stop  offset="0.9996" style="stop-color:#171717"/>
</linearGradient>
<rect x="1.4" y="1.2" class="st9" width="180.1" height="321.8"/>
<text transform="matrix(1 0 0 1 50.951 37.3021)" class="st10 st11 st12">MLN Token</text>
<text transform="matrix(1 0 0 1 63.851 55.4021)" class="st10 st11 st12">Holders</text>
<text transform="matrix(1 0 0 1 275.0901 37.3021)" class="st10 st11 st12">Council</text>
<text transform="matrix(1 0 0 1 484.2615 37.3021)" class="st10 st11 st12">Decision</text>
<g>
	<g>
		<circle class="st13" cx="301.9" cy="162.1" r="70.9"/>
		<circle class="st14" cx="301.9" cy="162.1" r="61.3"/>
		<text transform="matrix(1 0 0 1 276.4686 164.998)" class="st15 st11 st16">Council</text>
	</g>
	<g>
		<circle class="st13" cx="90.8" cy="162.1" r="70.9"/>
		<g>
			<circle class="st17" cx="83.2" cy="137.2" r="27.8"/>
			<g>
				<g>
					<path class="st15" d="M76.8,132c-0.3-0.8-0.6-1.4-1-1.8c-0.4-0.4-0.9-0.6-1.5-0.6h-0.5c0.5,0.2,0.9,0.5,1.2,0.8
						c0.3,0.4,0.6,0.9,0.9,1.7l5.9,14c0.2-0.3,0.3-0.6,0.3-0.9c0-0.2-0.1-0.6-0.3-1L76.8,132z"/>
					<path class="st15" d="M88.2,146.2h0.4c0.6,0,1-0.2,1.1-0.5s0.2-0.9,0.2-1.7v-12.3c0-1,0.1-1.7,0.2-2c-0.3,0-0.6,0.1-0.7,0.3
						s-0.2,0.4-0.3,0.7c0,0.3-0.1,0.8-0.1,1.4v12.3c0,0.6-0.1,1-0.2,1.3C88.8,145.7,88.6,146,88.2,146.2z"/>
					<path class="st15" d="M83.2,116.5c-11.4,0-20.7,9.3-20.7,20.7s9.3,20.7,20.7,20.7s20.7-9.3,20.7-20.7
						C103.9,125.8,94.6,116.5,83.2,116.5z M94.4,129.6c-0.9,0-1.5,0.1-1.8,0.3s-0.6,0.5-0.6,0.9c-0.1,0.4-0.1,1.1-0.1,2.2v11
						c0,0.6,0.1,1,0.2,1.3s0.4,0.5,0.7,0.6c0.3,0.1,0.9,0.2,1.6,0.2v0.7h-8.2v-0.7c0.8,0,1.4-0.1,1.8-0.3s0.6-0.5,0.6-0.8
						c0.1-0.3,0.1-0.9,0.1-1.6v-12.3l-6.3,15.8h-0.7l-6.2-15.2v10.4c0,1.2,0.2,2.1,0.7,2.7c0.4,0.7,1.2,1.1,2.2,1.3v0.7H72v-0.7
						c0.9-0.1,1.6-0.4,2.1-1.1c0.5-0.6,0.7-1.5,0.7-2.6v-11.8c-0.3-0.4-0.8-0.7-1.2-0.9c-0.5-0.2-1-0.3-1.6-0.2v-0.6h5.8l5.7,13.6
						l5.6-13.6h5.5v0.7H94.4z"/>
					<path class="st15" d="M74.8,144.5c-0.1,0.3-0.3,0.7-0.6,0.9c-0.3,0.3-0.6,0.5-1,0.7H76c-0.3-0.2-0.6-0.4-0.7-0.7
						C75.1,145.2,74.9,144.9,74.8,144.5z"/>
				</g>
				<g>
					<g>
						<path class="st15" d="M83.2,160.4C70.4,160.4,60,150,60,137.2S70.4,114,83.2,114s23.2,10.4,23.2,23.2
							C106.3,150,96,160.4,83.2,160.4z M83.2,115C70.9,115,61,125,61,137.2c0,12.3,10,22.2,22.2,22.2c12.3,0,22.2-10,22.2-22.2
							C105.4,124.9,95.4,115,83.2,115z"/>
					</g>
				</g>
			</g>
		</g>
		<g>
			<circle class="st17" cx="111" cy="159.5" r="27.8"/>
			<g>
				<g>
					<path class="st15" d="M104.6,154.3c-0.3-0.8-0.6-1.4-1-1.8c-0.4-0.4-0.9-0.6-1.5-0.6h-0.5c0.5,0.2,0.9,0.5,1.2,0.8
						c0.3,0.4,0.6,0.9,0.9,1.7l5.9,14c0.2-0.3,0.3-0.6,0.3-0.9c0-0.2-0.1-0.6-0.3-1L104.6,154.3z"/>
					<path class="st15" d="M116,168.5h0.4c0.6,0,1-0.2,1.1-0.5s0.2-0.9,0.2-1.7V154c0-1,0.1-1.7,0.2-2c-0.3,0-0.6,0.1-0.7,0.3
						s-0.2,0.4-0.3,0.7c0,0.3-0.1,0.8-0.1,1.4v12.3c0,0.6-0.1,1-0.2,1.3C116.6,168.1,116.4,168.3,116,168.5z"/>
					<path class="st15" d="M111,138.8c-11.4,0-20.7,9.3-20.7,20.7s9.3,20.7,20.7,20.7s20.7-9.3,20.7-20.7S122.4,138.8,111,138.8z
						 M122.2,151.9c-0.9,0-1.5,0.1-1.8,0.3s-0.6,0.5-0.6,0.9c-0.1,0.4-0.1,1.1-0.1,2.2v11c0,0.6,0.1,1,0.2,1.3s0.4,0.5,0.7,0.6
						c0.3,0.1,0.9,0.2,1.6,0.2v0.7H114v-0.7c0.8,0,1.4-0.1,1.8-0.3s0.6-0.5,0.6-0.8c0.1-0.3,0.1-0.9,0.1-1.6v-12.3l-6.3,15.7h-0.7
						l-6.2-15.2v10.4c0,1.2,0.2,2.1,0.7,2.7c0.4,0.7,1.2,1.1,2.2,1.3v0.7h-6.4v-0.7c0.9-0.1,1.6-0.4,2.1-1.1
						c0.5-0.6,0.7-1.5,0.7-2.6v-11.8c-0.3-0.4-0.8-0.7-1.2-0.9c-0.5-0.2-1-0.3-1.6-0.2V151h5.8l5.7,13.6l5.6-13.6h5.5v0.9
						L122.2,151.9L122.2,151.9z"/>
					<path class="st15" d="M102.6,166.8c-0.1,0.3-0.3,0.7-0.6,0.9c-0.3,0.3-0.6,0.5-1,0.7h2.7c-0.3-0.2-0.6-0.4-0.7-0.7
						C102.9,167.5,102.7,167.2,102.6,166.8z"/>
				</g>
				<g>
					<g>
						<path class="st15" d="M111,182.7c-12.8,0-23.2-10.4-23.2-23.2s10.4-23.2,23.2-23.2s23.2,10.4,23.2,23.2
							C134.1,172.3,123.8,182.7,111,182.7z M111,137.3c-12.3,0-22.2,10-22.2,22.2c0,12.3,10,22.2,22.2,22.2
							c12.3,0,22.2-10,22.2-22.2S123.2,137.3,111,137.3z"/>
					</g>
				</g>
			</g>
		</g>
		<g>
			<circle class="st17" cx="82.6" cy="183.2" r="27.8"/>
			<g>
				<g>
					<path class="st15" d="M76.2,177.9c-0.3-0.8-0.6-1.4-1-1.8c-0.4-0.4-0.9-0.6-1.5-0.6h-0.5c0.5,0.2,0.9,0.5,1.2,0.8
						c0.3,0.4,0.6,0.9,0.9,1.7l5.9,14c0.2-0.3,0.3-0.6,0.3-0.9c0-0.2-0.1-0.6-0.3-1L76.2,177.9z"/>
					<path class="st15" d="M87.6,192.1H88c0.6,0,1-0.2,1.1-0.5s0.2-0.9,0.2-1.7v-12.3c0-1,0.1-1.7,0.2-2c-0.3,0-0.6,0.1-0.7,0.3
						s-0.2,0.4-0.3,0.7c0,0.3-0.1,0.8-0.1,1.4v12.3c0,0.6-0.1,1-0.2,1.3C88.2,191.7,88,191.9,87.6,192.1z"/>
					<path class="st15" d="M82.6,162.4c-11.4,0-20.7,9.3-20.7,20.7s9.3,20.7,20.7,20.7s20.7-9.3,20.7-20.7S94,162.4,82.6,162.4z
						 M93.8,175.6c-0.9,0-1.5,0.1-1.8,0.3s-0.6,0.5-0.6,0.9c-0.1,0.4-0.1,1.1-0.1,2.2v11c0,0.6,0.1,1,0.2,1.3s0.4,0.5,0.7,0.6
						c0.3,0.1,0.9,0.2,1.6,0.2v0.7h-8.2v-0.7c0.8,0,1.4-0.1,1.8-0.3s0.6-0.5,0.6-0.8c0.1-0.3,0.1-0.9,0.1-1.6v-12.3l-6.3,15.7H81
						l-6.2-15.2V188c0,1.2,0.2,2.1,0.7,2.7c0.4,0.7,1.2,1.1,2.2,1.3v0.7h-6.4V192c0.9-0.1,1.6-0.4,2.1-1.1c0.5-0.6,0.7-1.5,0.7-2.6
						v-11.8c-0.3-0.4-0.8-0.7-1.2-0.9c-0.5-0.2-1-0.3-1.6-0.2v-0.5H77l5.7,13.6l5.6-13.6h5.5C93.8,174.9,93.8,175.6,93.8,175.6z"/>
					<path class="st15" d="M74.2,190.5c-0.1,0.3-0.3,0.7-0.6,0.9c-0.3,0.3-0.6,0.5-1,0.7h2.7c-0.3-0.2-0.6-0.4-0.7-0.7
						C74.4,191.2,74.3,190.8,74.2,190.5z"/>
				</g>
				<g>
					<g>
						<path class="st15" d="M82.6,206.3c-12.8,0-23.2-10.4-23.2-23.2s10.4-23.2,23.2-23.2s23.2,10.4,23.2,23.2
							C105.7,195.9,95.3,206.3,82.6,206.3z M82.6,160.9c-12.3,0-22.2,10-22.2,22.2c0,12.3,10,22.2,22.2,22.2
							c12.3,0,22.2-10,22.2-22.2S94.8,160.9,82.6,160.9z"/>
					</g>
				</g>
			</g>
		</g>
	</g>
	<g>
		<line class="st13" x1="161.9" y1="162.1" x2="219.7" y2="162.1"/>
		<polygon class="st10" points="219.7,167.1 219.7,157 224.8,162.1 		"/>
	</g>
	<g>
		<g>
			<line class="st13" x1="363.9" y1="128.1" x2="429" y2="112.5"/>
			<polygon class="st10" points="430.1,117.2 427.8,107.3 433.9,111.1 			"/>
		</g>
		<g>
			<line class="st13" x1="429" y1="211.7" x2="363.9" y2="196.1"/>
			<polygon class="st10" points="433.9,213.1 427.8,216.9 430.1,207 			"/>
		</g>
	</g>
</g>
</svg>
