<?xml version="1.0" encoding="utf-8"?>
<!-- Generator: Adobe Illustrator 23.0.1, SVG Export Plug-In . SVG Version: 6.00 Build 0)  -->
<svg version="1.1" id="Layer_1" xmlns="http://www.w3.org/2000/svg" xmlns:xlink="http://www.w3.org/1999/xlink" x="0px" y="0px"
	 viewBox="0 0 606.5 323" style="enable-background:new 0 0 606.5 323;" xml:space="preserve">
<style type="text/css">
	.st0{display:none;fill:#171717;}
	.st1{display:none;}
	.st2{display:inline;}
	.st3{fill:none;stroke:#2B2B2B;stroke-miterlimit:10;}
	.st4{fill:none;stroke:#2B2B2B;stroke-miterlimit:10;stroke-dasharray:3.0024,3.0024;}
	.st5{fill:none;stroke:#2B2B2B;stroke-miterlimit:10;stroke-dasharray:3.0198,3.0198;}
	.st6{fill:none;stroke:#2B2B2B;stroke-miterlimit:10;stroke-dasharray:2.9207,2.9207;}
	.st7{fill:url(#SVGID_1_);}
	.st8{fill:#878787;}
	.st9{font-family:'SourceSerifPro-Regular';}
	.st10{font-size:16px;}
	.st11{fill:#2C2C2C;}
	.st12{fill:none;stroke:#707070;stroke-miterlimit:10;}
	.st13{fill:#FFFDF3;}
	.st14{font-family:'SourceSerifPro-Semibold';}
	.st15{font-size:14.748px;}
	.st16{font-size:9.4809px;}
</style>
<rect x="-81.7" y="-100.4" class="st0" width="841.9" height="595.3"/>
<g class="st1">
	<g class="st2">
		<polyline class="st3" points="182.1,392.1 182.1,393.6 180.6,393.6 		"/>
		<line class="st4" x1="177.6" y1="393.6" x2="5" y2="393.6"/>
		<polyline class="st3" points="3.5,393.6 2,393.6 2,392.1 		"/>
		<line class="st5" x1="2" y1="389" x2="2" y2="4"/>
		<polyline class="st3" points="2,2.5 2,1 3.5,1 		"/>
		<line class="st4" x1="6.5" y1="1" x2="179.1" y2="1"/>
		<polyline class="st3" points="180.6,1 182.1,1 182.1,2.5 		"/>
		<line class="st5" x1="182.1" y1="5.5" x2="182.1" y2="390.5"/>
	</g>
</g>
<g class="st1">
	<g class="st2">
		<polyline class="st3" points="392.5,392.1 392.5,393.6 391,393.6 		"/>
		<line class="st4" x1="388" y1="393.6" x2="215.4" y2="393.6"/>
		<polyline class="st3" points="213.9,393.6 212.4,393.6 212.4,392.1 		"/>
		<line class="st5" x1="212.4" y1="389" x2="212.4" y2="4"/>
		<polyline class="st3" points="212.4,2.5 212.4,1 213.9,1 		"/>
		<line class="st4" x1="216.9" y1="1" x2="389.5" y2="1"/>
		<polyline class="st3" points="391,1 392.5,1 392.5,2.5 		"/>
		<line class="st5" x1="392.5" y1="5.5" x2="392.5" y2="390.5"/>
	</g>
</g>
<g class="st1">
	<g class="st2">
		<polyline class="st3" points="534,392.1 534,393.6 532.5,393.6 		"/>
		<line class="st6" x1="529.6" y1="393.6" x2="425.9" y2="393.6"/>
		<polyline class="st3" points="424.4,393.6 422.9,393.6 422.9,392.1 		"/>
		<line class="st5" x1="422.9" y1="389" x2="422.9" y2="4"/>
		<polyline class="st3" points="422.9,2.5 422.9,1 424.4,1 		"/>
		<line class="st6" x1="427.4" y1="1" x2="531" y2="1"/>
		<polyline class="st3" points="532.5,1 534,1 534,2.5 		"/>
		<line class="st5" x1="534" y1="5.5" x2="534" y2="390.5"/>
	</g>
</g>
<g class="st1">
	<g class="st2">
		<polyline class="st3" points="676.5,392.1 676.5,393.6 675,393.6 		"/>
		<line class="st6" x1="672.1" y1="393.6" x2="568.4" y2="393.6"/>
		<polyline class="st3" points="566.9,393.6 565.4,393.6 565.4,392.1 		"/>
		<line class="st5" x1="565.4" y1="389" x2="565.4" y2="4"/>
		<polyline class="st3" points="565.4,2.5 565.4,1 566.9,1 		"/>
		<line class="st6" x1="569.8" y1="1" x2="673.5" y2="1"/>
		<polyline class="st3" points="675,1 676.5,1 676.5,2.5 		"/>
		<line class="st5" x1="676.5" y1="5.5" x2="676.5" y2="390.5"/>
	</g>
</g>
<linearGradient id="SVGID_1_" gradientUnits="userSpaceOnUse" x1="303.25" y1="1131.6299" x2="303.25" y2="808.6299" gradientTransform="matrix(1 0 0 1 0 -808.6299)">
	<stop  offset="0" style="stop-color:#171717"/>
	<stop  offset="0.4996" style="stop-color:#212121"/>
	<stop  offset="0.9996" style="stop-color:#171717"/>
</linearGradient>
<rect y="0" class="st7" width="606.5" height="323"/>
<text transform="matrix(1 0 0 1 230.5954 53.9216)" class="st8 st9 st10">waterMelon Council</text>
<g>
	<circle class="st11" cx="302.8" cy="131.8" r="47.4"/>
	<circle class="st12" cx="302.8" cy="131.8" r="54.8"/>
	<g>
		<g>
			<g>
				<path class="st13" d="M302.8,132.6c-3.2,0-6.3-0.9-9-2.6c-0.3-0.2-0.4-0.5-0.2-0.8l0.3-0.5c0.8-1.7,1.6-3.2,1.7-3.4
					c0.1-0.2,0.2-0.3,0.4-0.4c0.1,0,0.1-0.1,0.2-0.1l3.9-1.1v-1.5c0-0.3,0.3-0.6,0.6-0.6c0.3,0,0.6,0.3,0.6,0.6v1.6
					c0,0.5-0.4,1-0.9,1.1l-3.8,1.1c-0.2,0.4-0.9,1.8-1.7,3.3l0,0c2.4,1.4,5.1,2.1,7.9,2.1s5.5-0.7,7.9-2.1c-0.9-1.7-1.5-2.9-1.7-3.3
					l-3.8-1.1c-0.5-0.1-0.9-0.6-0.9-1.1v-1.5c0-0.3,0.3-0.6,0.6-0.6c0.3,0,0.6,0.3,0.6,0.6v1.5l3.9,1c0.1,0,0.1,0,0.1,0
					c0.1,0,0.3,0.2,0.4,0.4c0.1,0.1,0.8,1.7,2,3.9c0.1,0.3,0,0.6-0.2,0.8C309.2,131.7,306.1,132.6,302.8,132.6z"/>
				<path class="st13" d="M302.9,123.1c-3.5,0-6.3-3.3-6.3-7.5c0-4.1,2.8-7.5,6.3-7.5s6.3,3.3,6.3,7.5
					C309.2,119.8,306.4,123.1,302.9,123.1z M302.9,109.4c-2.8,0-5.1,2.8-5.1,6.2c0,3.4,2.3,6.2,5.1,6.2c2.8,0,5.1-2.8,5.1-6.2
					C308,112.2,305.7,109.4,302.9,109.4z"/>
			</g>
			<g>
				<g>
					<path class="st13" d="M321.3,153.7c-3.2,0-6.3-0.9-9-2.6c-0.3-0.2-0.4-0.5-0.2-0.8l0.3-0.5c0.8-1.7,1.6-3.2,1.7-3.4
						s0.2-0.3,0.4-0.4c0.1,0,0.1-0.1,0.2-0.1l3.9-1.1v-1.5c0-0.3,0.3-0.6,0.6-0.6c0.3,0,0.6,0.3,0.6,0.6v1.6c0,0.5-0.4,1-0.9,1.1
						l-3.9,1c-0.2,0.4-0.9,1.8-1.7,3.3l0,0c2.4,1.4,5.1,2.1,7.9,2.1s5.5-0.7,7.9-2.1c-0.9-1.7-1.5-2.9-1.7-3.3l-3.8-1.1
						c-0.5-0.1-0.9-0.6-0.9-1.1v-1.5c0-0.3,0.3-0.6,0.6-0.6s0.6,0.3,0.6,0.6v1.5l3.9,1c0.1,0,0.1,0,0.1,0c0.1,0,0.3,0.2,0.4,0.4
						s0.8,1.7,2,3.9c0.1,0.3,0,0.6-0.2,0.8C327.6,152.8,324.5,153.7,321.3,153.7z"/>
					<path class="st13" d="M321.3,144.2c-3.5,0-6.3-3.3-6.3-7.5c0-4.1,2.8-7.5,6.3-7.5s6.3,3.3,6.3,7.5
						C327.6,140.8,324.8,144.2,321.3,144.2z M321.3,130.5c-2.8,0-5.1,2.8-5.1,6.2s2.3,6.2,5.1,6.2c2.8,0,5.1-2.8,5.1-6.2
						S324.1,130.5,321.3,130.5z"/>
				</g>
				<g>
					<path class="st13" d="M284.4,153.7c-3.2,0-6.3-0.9-9-2.6c-0.3-0.2-0.4-0.5-0.2-0.8l0.6-1.1c0.7-1.4,1.3-2.7,1.4-2.8
						c0.1-0.2,0.2-0.3,0.4-0.4c0.1,0,0.1-0.1,0.2-0.1l3.9-1.1v-1.5c0-0.3,0.3-0.6,0.6-0.6c0.3,0,0.6,0.3,0.6,0.6v1.6
						c0,0.5-0.4,1-0.9,1.1l-3.8,1.1c-0.2,0.4-0.7,1.4-1.3,2.7l-0.3,0.6c2.4,1.4,5.1,2.1,7.9,2.1s5.5-0.7,7.9-2.1
						c-0.9-1.7-1.5-2.9-1.7-3.3l-3.8-1.1c-0.5-0.1-0.9-0.6-0.9-1.1v-1.5c0-0.3,0.3-0.6,0.6-0.6c0.3,0,0.6,0.3,0.6,0.6v1.5l3.9,1
						c0.1,0,0.1,0,0.1,0c0.1,0,0.3,0.1,0.4,0.4c0.1,0.1,0.8,1.7,2,3.9c0.1,0.3,0,0.6-0.2,0.8C290.7,152.8,287.6,153.7,284.4,153.7z"
						/>
					<path class="st13" d="M284.5,144.2c-3.5,0-6.3-3.3-6.3-7.5c0-4.1,2.8-7.5,6.3-7.5s6.3,3.3,6.3,7.5
						C290.8,140.8,287.9,144.2,284.5,144.2z M284.5,130.5c-2.8,0-5.1,2.8-5.1,6.2s2.3,6.2,5.1,6.2c2.8,0,5.1-2.8,5.1-6.2
						C289.5,133.3,287.3,130.5,284.5,130.5z"/>
				</g>
			</g>
		</g>
		<path class="st13" d="M302.8,163.5c-7,0-13.6-2.2-19.2-6.5c-0.3-0.2-0.3-0.6-0.1-0.9c0.2-0.3,0.6-0.3,0.9-0.1
			c5.3,4.1,11.7,6.2,18.4,6.2c6.8,0,13.2-2.2,18.6-6.3c0.3-0.2,0.7-0.2,0.9,0.1c0.2,0.3,0.2,0.7-0.1,0.9
			C316.6,161.2,309.9,163.5,302.8,163.5z"/>
		<path class="st13" d="M276.6,115.6c-0.1,0-0.2,0-0.3-0.1c-0.3-0.2-0.4-0.6-0.2-0.9c5.9-9.2,15.9-14.6,26.7-14.6
			c7.2,0,13.9,2.3,19.6,6.7c2.3,1.8,4.3,3.8,6,6.1c0.2,0.3,0.1,0.7-0.1,0.9c-0.3,0.2-0.7,0.1-0.9-0.1c-1.6-2.2-3.6-4.2-5.7-5.9
			c-5.4-4.2-11.9-6.5-18.8-6.5c-10.4,0-20,5.3-25.7,14.1C277,115.5,276.8,115.6,276.6,115.6z"/>
	</g>
</g>
<text transform="matrix(1 0 0 1 157.3145 252.0317)" class="st13 st14 st15">MTC</text>
<text transform="matrix(1 0 0 1 126.8775 267.8862)" class="st8 st9 st16">waterMelon Technical</text>
<text transform="matrix(1 0 0 1 158.1068 279.2862)" class="st8 st9 st16">Council</text>
<text transform="matrix(1 0 0 1 412.3691 252.0317)" class="st13 st14 st15">MEB</text>
<text transform="matrix(1 0 0 1 363.8457 267.8862)" class="st8 st9 st16">waterMelon Exposed Business</text>
<text transform="matrix(1 0 0 1 394.7482 279.2862)" class="st8 st9 st16">Representatives</text>
<g>
	<circle class="st12" cx="175.3" cy="186.6" r="38.5"/>
	<g>
		<g>
			<path class="st13" d="M191,199.8c-1.5,0-3.1-0.2-4.5-0.7c-0.3-0.1-0.5-0.4-0.4-0.7s0.4-0.5,0.7-0.4c1.4,0.4,2.8,0.6,4.2,0.6
				c2.6,0,5-0.7,7.2-2c-0.8-1.6-1.3-2.7-1.5-3l-3.5-1c-0.5-0.1-0.8-0.5-0.8-1V191c-1,0.2-1.9,0.2-2.9,0v0.7c0,0.5-0.3,0.9-0.8,1
				l-2.7,0.9c-0.3,0.1-0.6-0.1-0.7-0.4c-0.1-0.3,0.1-0.6,0.4-0.7l2.8-0.9v-1.4c0-0.2,0.1-0.4,0.2-0.5c0.2-0.1,0.3-0.1,0.5-0.1
				c1.2,0.5,2.4,0.5,3.6,0.1c0.2-0.1,0.4,0,0.5,0.1s0.2,0.3,0.2,0.5v1.4l3.6,1h0.1c0.1,0,0.3,0.1,0.4,0.4c0.1,0.1,0.8,1.5,1.8,3.6
				c0.1,0.3,0,0.6-0.2,0.7C196.7,199,193.9,199.8,191,199.8z"/>
			<path class="st13" d="M191,191.2c-3.2,0-5.7-3-5.7-6.8c0-3.7,2.6-6.8,5.7-6.8c3.2,0,5.7,3,5.7,6.8
				C196.8,188.1,194.2,191.2,191,191.2z M191,178.7c-2.6,0-4.6,2.6-4.6,5.7c0,3.1,2.1,5.7,4.6,5.7c2.6,0,4.6-2.6,4.6-5.7
				C195.7,181.2,193.6,178.7,191,178.7z"/>
		</g>
		<g>
			<path class="st13" d="M159.7,199.8c-2.9,0-5.8-0.8-8.2-2.4c-0.2-0.2-0.3-0.5-0.2-0.7c1-2.1,1.7-3.4,1.8-3.6
				c0.1-0.2,0.3-0.4,0.4-0.4h0.1l3.6-1v-1.4c0-0.2,0.1-0.4,0.2-0.5c0.1-0.1,0.3-0.1,0.5-0.1c1.2,0.5,2.4,0.4,3.6-0.1
				c0.2-0.1,0.4-0.1,0.5,0.1c0.2,0.1,0.2,0.3,0.2,0.5v1.5l3.1,0.9c0.3,0.1,0.5,0.4,0.4,0.7s-0.4,0.5-0.7,0.4l-3.1-0.9
				c-0.4-0.1-0.8-0.5-0.8-1v-0.7c-1,0.3-2,0.3-2.9,0v0.6c0,0.5-0.3,0.9-0.8,1l-3.5,1c-0.2,0.3-0.7,1.4-1.5,3c2.2,1.3,4.7,2,7.2,2
				c1.4,0,2.7-0.2,4-0.6c0.3-0.1,0.6,0.1,0.7,0.4c0.1,0.3-0.1,0.6-0.4,0.7C162.6,199.6,161.2,199.8,159.7,199.8z"/>
			<path class="st13" d="M159.6,191.2c-3.2,0-5.7-3-5.7-6.8c0-3.7,2.6-6.8,5.7-6.8c3.2,0,5.7,3,5.7,6.8
				C165.4,188.1,162.8,191.2,159.6,191.2z M159.6,178.7c-2.6,0-4.6,2.6-4.6,5.7c0,3.1,2.1,5.7,4.6,5.7c2.6,0,4.6-2.6,4.6-5.7
				C164.3,181.2,162.2,178.7,159.6,178.7z"/>
		</g>
		<g>
			<path class="st13" d="M175.3,200.7c-3.7,0-7.4-1.1-10.5-3.1c-0.2-0.2-0.3-0.5-0.2-0.7l1.1-2.1c0.7-1.3,1.2-2.4,1.3-2.5
				s0.2-0.3,0.4-0.4c0.1,0,0.1-0.1,0.2-0.1l4.6-1.3l0.1-0.1v-1.9c0-0.3,0.2-0.6,0.6-0.6c0.3,0,0.6,0.2,0.6,0.6v1.9
				c0,0.5-0.4,1-0.9,1.2l-4.5,1.3c-0.1,0.3-0.6,1.2-1.2,2.4l-0.8,1.6c2.9,1.7,6.1,2.6,9.5,2.6s6.6-0.9,9.5-2.6
				c-1.1-2.2-1.9-3.7-2-4.1l-4.5-1.3c-0.5-0.1-0.9-0.6-0.9-1.2v-1.8c0-0.3,0.2-0.6,0.6-0.6c0.3,0,0.6,0.2,0.6,0.6v1.8
				c0,0,0,0.1,0.1,0.1l4.6,1.3c0.1,0,0.1,0,0.2,0c0.1,0,0.3,0.2,0.4,0.4c0.1,0.2,1,2,2.3,4.6c0.1,0.3,0,0.6-0.2,0.7
				C182.7,199.7,179,200.7,175.3,200.7z"/>
			<path class="st13" d="M175.4,189.6c-4,0-7.2-3.8-7.2-8.6c0-4.7,3.2-8.6,7.2-8.6s7.2,3.8,7.2,8.6
				C182.6,185.7,179.4,189.6,175.4,189.6z M175.4,173.5c-3.4,0-6.1,3.4-6.1,7.5s2.7,7.5,6.1,7.5c3.4,0,6.1-3.4,6.1-7.5
				S178.8,173.5,175.4,173.5z"/>
		</g>
	</g>
</g>
<g>
	<circle class="st12" cx="430.3" cy="186.6" r="38.5"/>
	<g>
		<g>
			<path class="st13" d="M446,199.8c-1.5,0-3.1-0.2-4.5-0.7c-0.3-0.1-0.5-0.4-0.4-0.7s0.4-0.5,0.7-0.4c1.4,0.4,2.8,0.6,4.2,0.6
				c2.6,0,5-0.7,7.2-2c-0.8-1.6-1.3-2.7-1.5-3l-3.5-1c-0.5-0.1-0.8-0.5-0.8-1V191c-1,0.2-1.9,0.2-2.9,0v0.7c0,0.5-0.3,0.9-0.8,1
				l-2.7,0.9c-0.3,0.1-0.6-0.1-0.7-0.4c-0.1-0.3,0.1-0.6,0.4-0.7l2.8-0.9v-1.4c0-0.2,0.1-0.4,0.2-0.5c0.2-0.1,0.3-0.1,0.5-0.1
				c1.2,0.5,2.4,0.5,3.6,0.1c0.2-0.1,0.4,0,0.5,0.1s0.2,0.3,0.2,0.5v1.4l3.6,1h0.1c0.1,0,0.3,0.1,0.4,0.4c0.1,0.1,0.8,1.5,1.8,3.6
				c0.1,0.3,0,0.6-0.2,0.7C451.8,199,448.9,199.8,446,199.8z"/>
			<path class="st13" d="M446,191.2c-3.2,0-5.7-3-5.7-6.8c0-3.7,2.6-6.8,5.7-6.8c3.2,0,5.7,3,5.7,6.8
				C451.8,188.1,449.2,191.2,446,191.2z M446,178.7c-2.6,0-4.6,2.6-4.6,5.7c0,3.1,2.1,5.7,4.6,5.7c2.6,0,4.6-2.6,4.6-5.7
				C450.7,181.2,448.6,178.7,446,178.7z"/>
		</g>
		<g>
			<path class="st13" d="M414.7,199.8c-2.9,0-5.8-0.8-8.2-2.4c-0.2-0.2-0.3-0.5-0.2-0.7c1-2.1,1.7-3.4,1.8-3.6
				c0.1-0.2,0.3-0.4,0.4-0.4h0.1l3.6-1v-1.4c0-0.2,0.1-0.4,0.2-0.5s0.3-0.1,0.5-0.1c1.2,0.5,2.4,0.4,3.6-0.1
				c0.2-0.1,0.4-0.1,0.5,0.1c0.2,0.1,0.2,0.3,0.2,0.5v1.5l3.1,0.9c0.3,0.1,0.5,0.4,0.4,0.7s-0.4,0.5-0.7,0.4l-3.1-0.9
				c-0.4-0.1-0.8-0.5-0.8-1v-0.7c-1,0.3-2,0.3-2.9,0v0.6c0,0.5-0.3,0.9-0.8,1l-3.5,1c-0.2,0.3-0.7,1.4-1.5,3c2.2,1.3,4.7,2,7.2,2
				c1.4,0,2.7-0.2,4-0.6c0.3-0.1,0.6,0.1,0.7,0.4c0.1,0.3-0.1,0.6-0.4,0.7C417.6,199.6,416.2,199.8,414.7,199.8z"/>
			<path class="st13" d="M414.7,191.2c-3.2,0-5.7-3-5.7-6.8c0-3.7,2.6-6.8,5.7-6.8c3.2,0,5.7,3,5.7,6.8
				C420.4,188.1,417.8,191.2,414.7,191.2z M414.7,178.7c-2.6,0-4.6,2.6-4.6,5.7c0,3.1,2.1,5.7,4.6,5.7c2.6,0,4.6-2.6,4.6-5.7
				C419.3,181.2,417.2,178.7,414.7,178.7z"/>
		</g>
		<g>
			<path class="st13" d="M430.3,200.7c-3.7,0-7.4-1.1-10.5-3.1c-0.2-0.2-0.3-0.5-0.2-0.7l1.1-2.1c0.7-1.3,1.2-2.4,1.3-2.5
				c0.1-0.1,0.2-0.3,0.4-0.4c0.1,0,0.1-0.1,0.2-0.1l4.6-1.3l0.1-0.1v-1.9c0-0.3,0.2-0.6,0.6-0.6s0.6,0.2,0.6,0.6v1.9
				c0,0.5-0.4,1-0.9,1.2l-4.5,1.3c-0.1,0.3-0.6,1.2-1.2,2.4l-0.8,1.6c2.9,1.7,6.1,2.6,9.5,2.6s6.6-0.9,9.5-2.6
				c-1.1-2.2-1.9-3.7-2-4.1l-4.5-1.3c-0.5-0.1-0.9-0.6-0.9-1.2v-1.8c0-0.3,0.2-0.6,0.6-0.6c0.3,0,0.6,0.2,0.6,0.6v1.8
				c0,0,0,0.1,0.1,0.1l4.6,1.3c0.1,0,0.1,0,0.2,0s0.3,0.2,0.4,0.4s1,2,2.3,4.6c0.1,0.3,0,0.6-0.2,0.7
				C437.7,199.7,434.1,200.7,430.3,200.7z"/>
			<path class="st13" d="M430.4,189.6c-4,0-7.2-3.8-7.2-8.6c0-4.7,3.2-8.6,7.2-8.6s7.2,3.8,7.2,8.6
				C437.6,185.7,434.4,189.6,430.4,189.6z M430.4,173.5c-3.4,0-6.1,3.4-6.1,7.5s2.7,7.5,6.1,7.5s6.1-3.4,6.1-7.5
				S433.8,173.5,430.4,173.5z"/>
		</g>
	</g>
</g>
</svg>
