<?xml version="1.0" encoding="utf-8"?>
<!-- Generator: Adobe Illustrator 23.0.0, SVG Export Plug-In . SVG Version: 6.00 Build 0)  -->
<svg version="1.1" id="Layer_1" xmlns="http://www.w3.org/2000/svg" xmlns:xlink="http://www.w3.org/1999/xlink" x="0px" y="0px"
	 viewBox="0 0 606.5 323" style="enable-background:new 0 0 606.5 323;" xml:space="preserve">
<style type="text/css">
	.st0{display:none;fill:#171717;}
	.st1{display:none;}
	.st2{display:inline;}
	.st3{fill:none;stroke:#2B2B2B;stroke-miterlimit:10;}
	.st4{fill:none;stroke:#2B2B2B;stroke-miterlimit:10;stroke-dasharray:3.0024,3.0024;}
	.st5{fill:none;stroke:#2B2B2B;stroke-miterlimit:10;stroke-dasharray:3.0198,3.0198;}
	.st6{fill:none;stroke:#2B2B2B;stroke-miterlimit:10;stroke-dasharray:2.9207,2.9207;}
	.st7{fill:url(#SVGID_1_);}
	.st8{fill:url(#SVGID_2_);}
	.st9{fill:url(#SVGID_3_);}
	.st10{fill:none;stroke:#707070;stroke-miterlimit:10;}
	.st11{fill:#2C2C2C;}
	.st12{fill:#171717;}
	.st13{fill:#FFFDF3;}
	.st14{fill:#707070;}
</style>
<rect x="-81.7" y="-100.4" class="st0" width="841.9" height="595.3"/>
<g class="st1">
	<g class="st2">
		<polyline class="st3" points="182.1,392.1 182.1,393.6 180.6,393.6 		"/>
		<line class="st4" x1="177.6" y1="393.6" x2="5" y2="393.6"/>
		<polyline class="st3" points="3.5,393.6 2,393.6 2,392.1 		"/>
		<line class="st5" x1="2" y1="389" x2="2" y2="4"/>
		<polyline class="st3" points="2,2.5 2,1 3.5,1 		"/>
		<line class="st4" x1="6.5" y1="1" x2="179.1" y2="1"/>
		<polyline class="st3" points="180.6,1 182.1,1 182.1,2.5 		"/>
		<line class="st5" x1="182.1" y1="5.5" x2="182.1" y2="390.5"/>
	</g>
</g>
<g class="st1">
	<g class="st2">
		<polyline class="st3" points="392.5,392.1 392.5,393.6 391,393.6 		"/>
		<line class="st4" x1="388" y1="393.6" x2="215.4" y2="393.6"/>
		<polyline class="st3" points="213.9,393.6 212.4,393.6 212.4,392.1 		"/>
		<line class="st5" x1="212.4" y1="389" x2="212.4" y2="4"/>
		<polyline class="st3" points="212.4,2.5 212.4,1 213.9,1 		"/>
		<line class="st4" x1="216.9" y1="1" x2="389.5" y2="1"/>
		<polyline class="st3" points="391,1 392.5,1 392.5,2.5 		"/>
		<line class="st5" x1="392.5" y1="5.5" x2="392.5" y2="390.5"/>
	</g>
</g>
<g class="st1">
	<g class="st2">
		<polyline class="st3" points="534,392.1 534,393.6 532.5,393.6 		"/>
		<line class="st6" x1="529.6" y1="393.6" x2="425.9" y2="393.6"/>
		<polyline class="st3" points="424.4,393.6 422.9,393.6 422.9,392.1 		"/>
		<line class="st5" x1="422.9" y1="389" x2="422.9" y2="4"/>
		<polyline class="st3" points="422.9,2.5 422.9,1 424.4,1 		"/>
		<line class="st6" x1="427.4" y1="1" x2="531" y2="1"/>
		<polyline class="st3" points="532.5,1 534,1 534,2.5 		"/>
		<line class="st5" x1="534" y1="5.5" x2="534" y2="390.5"/>
	</g>
</g>
<g class="st1">
	<g class="st2">
		<polyline class="st3" points="676.5,392.1 676.5,393.6 675,393.6 		"/>
		<line class="st6" x1="672.1" y1="393.6" x2="568.4" y2="393.6"/>
		<polyline class="st3" points="566.9,393.6 565.4,393.6 565.4,392.1 		"/>
		<line class="st5" x1="565.4" y1="389" x2="565.4" y2="4"/>
		<polyline class="st3" points="565.4,2.5 565.4,1 566.9,1 		"/>
		<line class="st6" x1="569.8" y1="1" x2="673.5" y2="1"/>
		<polyline class="st3" points="675,1 676.5,1 676.5,2.5 		"/>
		<line class="st5" x1="676.5" y1="5.5" x2="676.5" y2="390.5"/>
	</g>
</g>
<linearGradient id="SVGID_1_" gradientUnits="userSpaceOnUse" x1="301.95" y1="1299.7244" x2="301.95" y2="977.9244" gradientTransform="matrix(1 0 0 1 0 -976.7244)">
	<stop  offset="0" style="stop-color:#171717"/>
	<stop  offset="0.4996" style="stop-color:#212121"/>
	<stop  offset="0.9996" style="stop-color:#171717"/>
</linearGradient>
<rect x="211.9" y="1.2" class="st7" width="180.1" height="321.8"/>
<linearGradient id="SVGID_2_" gradientUnits="userSpaceOnUse" x1="513.65" y1="1299.7244" x2="513.65" y2="977.9244" gradientTransform="matrix(1 0 0 1 0 -976.7244)">
	<stop  offset="0" style="stop-color:#171717"/>
	<stop  offset="0.4996" style="stop-color:#212121"/>
	<stop  offset="0.9996" style="stop-color:#171717"/>
</linearGradient>
<rect x="422.2" y="1.2" class="st8" width="182.9" height="321.8"/>
<linearGradient id="SVGID_3_" gradientUnits="userSpaceOnUse" x1="91.45" y1="1299.7244" x2="91.45" y2="977.9244" gradientTransform="matrix(1 0 0 1 0 -976.7244)">
	<stop  offset="0" style="stop-color:#171717"/>
	<stop  offset="0.4996" style="stop-color:#212121"/>
	<stop  offset="0.9996" style="stop-color:#171717"/>
</linearGradient>
<rect x="1.4" y="1.2" class="st9" width="180.1" height="321.8"/>
<text transform="matrix(1 0 0 1 -45.8624 -228.6704)" class="st14" style="font-family:'SourceSerifPro-Regular'; font-size:15.0749px;">MLN Token</text>
<text transform="matrix(1 0 0 1 -32.9623 -210.5704)" class="st14" style="font-family:'SourceSerifPro-Regular'; font-size:15.0749px;">Holders</text>
<text transform="matrix(1 0 0 1 178.2767 -228.6704)" class="st14" style="font-family:'SourceSerifPro-Regular'; font-size:15.0749px;">Council</text>
<text transform="matrix(1 0 0 1 387.4481 -228.6704)" class="st14" style="font-family:'SourceSerifPro-Regular'; font-size:15.0749px;">Decision</text>
<g>
	<g>
		<circle class="st10" cx="205.1" cy="-103.9" r="70.9"/>
		<circle class="st11" cx="205.1" cy="-103.9" r="61.3"/>
		
			<text transform="matrix(1 0 0 1 179.6553 -100.9745)" class="st13" style="font-family:'SourceSerifPro-Regular'; font-size:14.7124px;">Council</text>
	</g>
	<g>
		<circle class="st10" cx="-6" cy="-103.9" r="70.9"/>
		<g>
			<circle class="st12" cx="-13.6" cy="-128.8" r="27.8"/>
			<g>
				<g>
					<path class="st13" d="M-20-134c-0.3-0.8-0.6-1.4-1-1.8c-0.4-0.4-0.9-0.6-1.5-0.6H-23c0.5,0.2,0.9,0.5,1.2,0.8
						c0.3,0.4,0.6,0.9,0.9,1.7l5.9,14c0.2-0.3,0.3-0.6,0.3-0.9c0-0.2-0.1-0.6-0.3-1L-20-134z"/>
					<path class="st13" d="M-8.6-119.8h0.4c0.6,0,1-0.2,1.1-0.5s0.2-0.9,0.2-1.7v-12.3c0-1,0.1-1.7,0.2-2c-0.3,0-0.6,0.1-0.7,0.3
						s-0.2,0.4-0.3,0.7c0,0.3-0.1,0.8-0.1,1.4v12.3c0,0.6-0.1,1-0.2,1.3C-8-120.3-8.2-120-8.6-119.8z"/>
					<path class="st13" d="M-13.6-149.5c-11.4,0-20.7,9.3-20.7,20.7s9.3,20.7,20.7,20.7s20.7-9.3,20.7-20.7
						C7.1-140.2-2.2-149.5-13.6-149.5z M-2.4-136.4c-0.9,0-1.5,0.1-1.8,0.3s-0.6,0.5-0.6,0.9c-0.1,0.4-0.1,1.1-0.1,2.2v11
						c0,0.6,0.1,1,0.2,1.3s0.4,0.5,0.7,0.6c0.3,0.1,0.9,0.2,1.6,0.2v0.7h-8.2v-0.7c0.8,0,1.4-0.1,1.8-0.3s0.6-0.5,0.6-0.8
						c0.1-0.3,0.1-0.9,0.1-1.6v-12.3l-6.3,15.8h-0.7l-6.2-15.2v10.4c0,1.2,0.2,2.1,0.7,2.7c0.4,0.7,1.2,1.1,2.2,1.3v0.7h-6.4v-0.7
						c0.9-0.1,1.6-0.4,2.1-1.1c0.5-0.6,0.7-1.5,0.7-2.6v-11.8c-0.3-0.4-0.8-0.7-1.2-0.9c-0.5-0.2-1-0.3-1.6-0.2v-0.6h5.8l5.7,13.6
						l5.6-13.6h5.5v0.7L-2.4-136.4L-2.4-136.4z"/>
					<path class="st13" d="M-22-121.5c-0.1,0.3-0.3,0.7-0.6,0.9c-0.3,0.3-0.6,0.5-1,0.7h2.8c-0.3-0.2-0.6-0.4-0.7-0.7
						C-21.7-120.8-21.9-121.1-22-121.5z"/>
				</g>
				<g>
					<g>
						<path class="st13" d="M-13.6-105.6c-12.8,0-23.2-10.4-23.2-23.2S-26.4-152-13.6-152s23.2,10.4,23.2,23.2
							C9.5-116-0.8-105.6-13.6-105.6z M-13.6-151c-12.3,0-22.2,10-22.2,22.2c0,12.3,10,22.2,22.2,22.2c12.3,0,22.2-10,22.2-22.2
							C8.6-141.1-1.4-151-13.6-151z"/>
					</g>
				</g>
			</g>
		</g>
		<g>
			<circle class="st12" cx="14.2" cy="-106.5" r="27.8"/>
			<g>
				<g>
					<path class="st13" d="M7.8-111.7c-0.3-0.8-0.6-1.4-1-1.8c-0.4-0.4-0.9-0.6-1.5-0.6H4.8c0.5,0.2,0.9,0.5,1.2,0.8
						c0.3,0.4,0.6,0.9,0.9,1.7l5.9,14c0.2-0.3,0.3-0.6,0.3-0.9c0-0.2-0.1-0.6-0.3-1L7.8-111.7z"/>
					<path class="st13" d="M19.2-97.5h0.4c0.6,0,1-0.2,1.1-0.5s0.2-0.9,0.2-1.7V-112c0-1,0.1-1.7,0.2-2c-0.3,0-0.6,0.1-0.7,0.3
						s-0.2,0.4-0.3,0.7c0,0.3-0.1,0.8-0.1,1.4v12.3c0,0.6-0.1,1-0.2,1.3C19.8-97.9,19.6-97.7,19.2-97.5z"/>
					<path class="st13" d="M14.2-127.2c-11.4,0-20.7,9.3-20.7,20.7s9.3,20.7,20.7,20.7s20.7-9.3,20.7-20.7S25.6-127.2,14.2-127.2z
						 M25.4-114.1c-0.9,0-1.5,0.1-1.8,0.3s-0.6,0.5-0.6,0.9c-0.1,0.4-0.1,1.1-0.1,2.2v11c0,0.6,0.1,1,0.2,1.3s0.4,0.5,0.7,0.6
						c0.3,0.1,0.9,0.2,1.6,0.2v0.7h-8.2v-0.7c0.8,0,1.4-0.1,1.8-0.3s0.6-0.5,0.6-0.8c0.1-0.3,0.1-0.9,0.1-1.6v-12.3l-6.3,15.7h-0.7
						l-6.2-15.2v10.4c0,1.2,0.2,2.1,0.7,2.7c0.4,0.7,1.2,1.1,2.2,1.3v0.7H3v-0.7c0.9-0.1,1.6-0.4,2.1-1.1c0.5-0.6,0.7-1.5,0.7-2.6
						v-11.8c-0.3-0.4-0.8-0.7-1.2-0.9c-0.5-0.2-1-0.3-1.6-0.2v-0.7h5.8l5.7,13.6l5.6-13.6h5.5v0.9H25.4L25.4-114.1z"/>
					<path class="st13" d="M5.8-99.2c-0.1,0.3-0.3,0.7-0.6,0.9c-0.3,0.3-0.6,0.5-1,0.7h2.7c-0.3-0.2-0.6-0.4-0.7-0.7
						C6.1-98.5,5.9-98.8,5.8-99.2z"/>
				</g>
				<g>
					<g>
						<path class="st13" d="M14.2-83.3C1.4-83.3-9-93.7-9-106.5s10.4-23.2,23.2-23.2s23.2,10.4,23.2,23.2
							C37.3-93.7,27-83.3,14.2-83.3z M14.2-128.7c-12.3,0-22.2,10-22.2,22.2c0,12.3,10,22.2,22.2,22.2c12.3,0,22.2-10,22.2-22.2
							S26.4-128.7,14.2-128.7z"/>
					</g>
				</g>
			</g>
		</g>
		<g>
			<circle class="st12" cx="-14.2" cy="-82.8" r="27.8"/>
			<g>
				<g>
					<path class="st13" d="M-20.6-88.1c-0.3-0.8-0.6-1.4-1-1.8c-0.4-0.4-0.9-0.6-1.5-0.6h-0.5c0.5,0.2,0.9,0.5,1.2,0.8
						c0.3,0.4,0.6,0.9,0.9,1.7l5.9,14c0.2-0.3,0.3-0.6,0.3-0.9c0-0.2-0.1-0.6-0.3-1L-20.6-88.1z"/>
					<path class="st13" d="M-9.2-73.9h0.4c0.6,0,1-0.2,1.1-0.5s0.2-0.9,0.2-1.7v-12.3c0-1,0.1-1.7,0.2-2c-0.3,0-0.6,0.1-0.7,0.3
						s-0.2,0.4-0.3,0.7c0,0.3-0.1,0.8-0.1,1.4v12.3c0,0.6-0.1,1-0.2,1.3C-8.6-74.3-8.8-74.1-9.2-73.9z"/>
					<path class="st13" d="M-14.2-103.6c-11.4,0-20.7,9.3-20.7,20.7s9.3,20.7,20.7,20.7S6.5-71.5,6.5-82.9S-2.8-103.6-14.2-103.6z
						 M-3-90.4c-0.9,0-1.5,0.1-1.8,0.3s-0.6,0.5-0.6,0.9c-0.1,0.4-0.1,1.1-0.1,2.2v11c0,0.6,0.1,1,0.2,1.3s0.4,0.5,0.7,0.6
						c0.3,0.1,0.9,0.2,1.6,0.2v0.7h-8.2v-0.7c0.8,0,1.4-0.1,1.8-0.3s0.6-0.5,0.6-0.8c0.1-0.3,0.1-0.9,0.1-1.6v-12.3L-15-73.2h-0.8
						L-22-88.4V-78c0,1.2,0.2,2.1,0.7,2.7c0.4,0.7,1.2,1.1,2.2,1.3v0.7h-6.4V-74c0.9-0.1,1.6-0.4,2.1-1.1c0.5-0.6,0.7-1.5,0.7-2.6
						v-11.8c-0.3-0.4-0.8-0.7-1.2-0.9c-0.5-0.2-1-0.3-1.6-0.2v-0.5h5.7l5.7,13.6l5.6-13.6H-3C-3-91.1-3-90.4-3-90.4z"/>
					<path class="st13" d="M-22.6-75.5c-0.1,0.3-0.3,0.7-0.6,0.9c-0.3,0.3-0.6,0.5-1,0.7h2.7c-0.3-0.2-0.6-0.4-0.7-0.7
						C-22.4-74.8-22.5-75.2-22.6-75.5z"/>
				</g>
				<g>
					<g>
						<path class="st13" d="M-14.2-59.7c-12.8,0-23.2-10.4-23.2-23.2s10.4-23.2,23.2-23.2S9-95.7,9-82.9
							C8.9-70.1-1.5-59.7-14.2-59.7z M-14.2-105.1c-12.3,0-22.2,10-22.2,22.2c0,12.3,10,22.2,22.2,22.2C-1.9-60.7,8-70.7,8-82.9
							S-2-105.1-14.2-105.1z"/>
					</g>
				</g>
			</g>
		</g>
	</g>
	<g>
		<line class="st10" x1="65.1" y1="-103.9" x2="122.9" y2="-103.9"/>
		<polygon class="st14" points="122.9,-98.9 122.9,-109 128,-103.9 		"/>
	</g>
	<g>
		<g>
			<line class="st10" x1="267.1" y1="-137.9" x2="332.2" y2="-153.5"/>
			<polygon class="st14" points="333.3,-148.8 331,-158.7 337.1,-154.9 			"/>
		</g>
		<g>
			<line class="st10" x1="332.2" y1="-54.3" x2="267.1" y2="-69.9"/>
			<polygon class="st14" points="337.1,-52.9 331,-49.1 333.3,-59 			"/>
		</g>
	</g>
</g>
</svg>
