<?xml version="1.0" encoding="utf-8"?>
<!-- Generator: Adobe Illustrator 22.0.0, SVG Export Plug-In . SVG Version: 6.00 Build 0)  -->
<svg version="1.1" id="Layer_1" xmlns="http://www.w3.org/2000/svg" xmlns:xlink="http://www.w3.org/1999/xlink" x="0px" y="0px"
	 viewBox="0 0 349.7 89.2" style="enable-background:new 0 0 349.7 89.2;" xml:space="preserve">
<style type="text/css">
	.st0{fill:#FFFDF3;}
</style>
<g id="Logo" transform="translate(2775 2310.667)">
	<path id="Path_20" class="st0" d="M-2641.1-2254.5l12.9-29.3h10.8v1.2h-1.3c-1.2-0.1-2.3,0.1-3.4,0.5c-0.6,0.4-1,0.9-1,1.6
		c-0.3,1.9-0.4,3.7-0.3,5.6v17.4c0,2.8,0.1,4.7,0.2,5.5c0,0.8,0.4,1.5,1,1.9c1,0.5,2.1,0.7,3.2,0.7h1.5v1.2h-16.9v-1.2h1.2
		c1.1,0.1,2.2-0.1,3.1-0.6c0.6-0.4,1-1.1,1.1-1.8c0.3-1.9,0.4-3.8,0.3-5.7v-22.7l-14.1,31.7h-1.2l-14.2-31.7v20.7
		c-0.1,1.9,0,3.9,0.3,5.8c0.2,1,0.8,2,1.6,2.7c1.1,0.8,2.4,1.3,3.8,1.3v1.2h-12.6v-1.2c1.3,0,2.6-0.4,3.7-1.2
		c0.9-0.7,1.5-1.6,1.7-2.8c0.2-2,0.3-4,0.3-6v-15.4c0.1-1.8,0-3.6-0.3-5.4c-0.1-0.7-0.4-1.3-1-1.7c-1.1-0.4-2.3-0.6-3.5-0.5h-0.9
		v-1.2h10.7L-2641.1-2254.5z"/>
	<path id="Path_21" class="st0" d="M-2575.2-2259.4h1.2l-0.8,11h-29.3v-1.2h0.8c1.8,0,2.9-0.2,3.4-0.7c0.5-0.5,0.9-1.1,0.9-1.8
		c0.2-1.8,0.2-3.7,0.2-5.5v-17.4c0-2.7-0.1-4.5-0.2-5.3c-0.1-0.7-0.5-1.4-1-1.8c-0.6-0.4-1.6-0.5-3.3-0.5v-1.2h25.3l0.9,8.8h-1.2
		c-0.3-1.9-1-3.7-2.1-5.2c-0.7-1-1.7-1.7-2.9-2c-1.8-0.3-3.6-0.4-5.4-0.4h-4.9v14.8h3.8c1.2,0.1,2.4-0.1,3.6-0.5
		c0.6-0.2,1.1-0.7,1.3-1.3c0.2-1.2,0.3-2.3,0.3-3.5h1.2v12.2h-1.2c0.1-1.3-0.1-2.7-0.5-4c-0.3-0.6-0.8-1.1-1.4-1.3
		c-1.1-0.2-2.1-0.3-3.2-0.3h-3.9v8.4c0,4.2,0.3,6.7,0.9,7.4s2,1.1,4.4,1.1h2.7c1.6,0.1,3.1-0.2,4.6-0.8c1.4-0.6,2.6-1.6,3.4-2.9
		C-2576.5-2255.2-2575.6-2257.3-2575.2-2259.4z"/>
	<path id="Path_22" class="st0" d="M-2529.7-2258.9l-0.3,10.5h-30.1v-1.2h1c1.1,0.1,2.2-0.1,3.1-0.6c0.6-0.4,1-1.1,1.1-1.8
		c0.3-1.9,0.4-3.8,0.3-5.7v-17.3c0.1-1.8,0-3.6-0.3-5.4c-0.1-0.7-0.4-1.3-1-1.7c-1.1-0.4-2.3-0.6-3.5-0.5h-0.8v-1.2h17v1.2h-1.6
		c-1.2-0.1-2.3,0.1-3.4,0.5c-0.6,0.4-1,0.9-1,1.6c-0.3,1.9-0.4,3.7-0.3,5.6v18.4c0,1.6,0,3.2,0.2,4.8c0.1,0.7,0.5,1.2,1.1,1.5
		c0.6,0.4,1.9,0.6,4,0.6h2.7c1.6,0.1,3.3-0.1,4.8-0.6c1.2-0.5,2.3-1.4,3-2.5c1.2-1.9,2.1-4,2.6-6.2L-2529.7-2258.9L-2529.7-2258.9z"
		/>
	<path id="Path_23" class="st0" d="M-2516.8-2266.4c0-5.5,1.8-9.9,5.5-13.2c3.6-3.3,8.2-4.9,13.7-4.9s10.2,1.6,13.8,4.9
		c3.7,3.2,5.5,7.7,5.5,13.4c0.2,5-1.8,9.8-5.3,13.3c-3.5,3.4-8.2,5.1-14,5.1c-5.6,0-10.3-1.7-13.9-5.1
		C-2515-2256.3-2516.8-2260.8-2516.8-2266.4z M-2510.8-2266.2c0,5.7,1.1,10,3.4,12.8c2.3,2.9,5.7,4.3,10.3,4.3
		c3.6,0.2,7.1-1.4,9.4-4.3c2.3-2.9,3.5-7.1,3.5-12.7c0-5.5-1.1-9.7-3.4-12.6c-2.3-2.9-5.6-4.4-9.9-4.4c-4.3,0-7.5,1.4-9.8,4.3
		C-2509.7-2276.1-2510.8-2271.8-2510.8-2266.2z"/>
	<path id="Path_24" class="st0" d="M-2431.9-2247.7l-25.1-33.2v24.6c-0.1,1.3,0,2.7,0.3,4c0.3,0.8,0.9,1.4,1.7,1.8
		c1.3,0.7,2.8,0.9,4.3,0.9v1.2h-13.2v-1.2c1.4,0,2.7-0.3,3.9-0.9c0.7-0.3,1.3-0.9,1.6-1.6c0.3-1.3,0.4-2.7,0.3-4.1v-18.8
		c0.1-1.8,0-3.6-0.4-5.4c-0.1-0.8-0.6-1.4-1.2-1.8c-1.2-0.3-2.5-0.5-3.7-0.4v-1.2h10.5l21,27.7v-21.2c0-1.1-0.1-2.3-0.5-3.3
		c-0.4-0.8-1.2-1.3-2-1.5c-1.2-0.4-2.4-0.6-3.6-0.6v-1.2h12.8v1.2c-1.2,0-2.4,0.3-3.5,0.9c-0.7,0.3-1.3,0.9-1.6,1.6
		c-0.3,1.1-0.4,2.1-0.4,3.2v29.3L-2431.9-2247.7L-2431.9-2247.7z"/>
	<path id="Path_25" class="st0" d="M-2742.6-2276.2c-0.4-1.2-1.1-2.4-1.9-3.4c-0.8-0.8-1.8-1.2-2.9-1.1h-1c0.9,0.3,1.7,0.9,2.4,1.6
		c0.7,1,1.3,2.1,1.8,3.2l11.3,27c0.3-0.5,0.5-1.1,0.6-1.7c-0.1-0.7-0.3-1.4-0.6-2L-2742.6-2276.2z"/>
	<path id="Path_26" class="st0" d="M-2720.7-2248.8h0.9c1.1,0,1.8-0.3,2.1-0.9c0.3-1.1,0.4-2.2,0.4-3.3v-23.7
		c-0.1-1.3,0.1-2.6,0.5-3.9c-0.7,0.1-1.1,0.2-1.4,0.6c-0.3,0.4-0.5,0.8-0.5,1.3c-0.1,0.9-0.1,1.8-0.1,2.7v23.7
		c0.1,0.8,0,1.6-0.4,2.4C-2719.7-2249.5-2720.2-2249.1-2720.7-2248.8z"/>
	<path id="Path_27" class="st0" d="M-2730.4-2306c-22,0-39.9,17.9-39.9,39.9c0,22,17.9,39.9,39.9,39.9c22,0,39.9-17.9,39.9-39.9
		c0,0,0,0,0,0C-2690.5-2288.1-2708.4-2306-2730.4-2306C-2730.4-2306-2730.4-2306-2730.4-2306z M-2708.8-2280.6
		c-1.2-0.1-2.4,0.1-3.5,0.7c-0.7,0.4-1.1,1-1.1,1.8c-0.1,1.4-0.2,2.8-0.2,4.3v21.2c0,0.8,0.1,1.7,0.5,2.5c0.3,0.6,0.8,1,1.4,1.1
		c1,0.3,2,0.4,3,0.5v1.3h-15.9v-1.3c1.2,0.1,2.3-0.1,3.4-0.6c0.6-0.3,1.1-0.8,1.2-1.5c0.1-1,0.2-2.1,0.2-3.1v-23.9l-12.3,30.2h-1.4
		l-12-29.3v20.1c-0.1,1.9,0.4,3.7,1.3,5.3c1.1,1.4,2.6,2.3,4.3,2.6v1.3h-12.4v-1.3c1.6-0.1,3.1-0.9,4.1-2.1c1-1.4,1.5-3.2,1.4-4.9
		v-22.7c-0.6-0.7-1.5-1.3-2.4-1.6c-1-0.3-2-0.5-3-0.5v-1.3h11.2l10.9,26.2l10.7-26.2h10.5L-2708.8-2280.6L-2708.8-2280.6z"/>
	<path id="Path_28" class="st0" d="M-2746.5-2252c-0.2,0.7-0.6,1.3-1,1.8c-0.6,0.5-1.2,1-1.8,1.4h5.1c-0.6-0.3-1.1-0.8-1.4-1.3
		C-2746.1-2250.7-2746.3-2251.3-2746.5-2252z"/>
	<path id="Path_29" class="st0" d="M-2730.4-2221.4c-24.6,0-44.6-19.9-44.7-44.6c0-24.6,19.9-44.6,44.6-44.7
		c24.6,0,44.6,19.9,44.7,44.6c0,0,0,0,0,0C-2685.9-2241.5-2705.8-2221.5-2730.4-2221.4z M-2730.4-2308.9
		c-23.6,0-42.8,19.1-42.8,42.8c0,23.6,19.1,42.8,42.8,42.8s42.8-19.1,42.8-42.8C-2687.7-2289.7-2706.8-2308.8-2730.4-2308.9
		L-2730.4-2308.9z"/>
</g>
</svg>
