<svg xmlns="http://www.w3.org/2000/svg" viewBox="2800 7670 301 301">
  <defs>
    <style>
      .cls-1, .cls-3 {
        fill: none;
      }

      .cls-1 {
        stroke: #ddd;
      }

      .cls-2 {
        stroke: none;
      }
    </style>
  </defs>
  <g id="Melon" transform="translate(2869 7739)">
    <g id="Border-01" class="cls-1" transform="translate(-33 -33)">
      <circle class="cls-2" cx="114.5" cy="114.5" r="114.5"/>
      <circle class="cls-3" cx="114.5" cy="114.5" r="114"/>
    </g>
    <g id="Border-02" class="cls-1" transform="translate(-69 -69)">
      <circle class="cls-2" cx="150.5" cy="150.5" r="150.5"/>
      <circle class="cls-3" cx="150.5" cy="150.5" r="150"/>
    </g>
    <path id="Path_25" data-name="Path 25" d="M38.6,39.844a20.519,20.519,0,0,0-3.477-6.258A6.7,6.7,0,0,0,29.738,31.5H28a10.145,10.145,0,0,1,4.346,2.955,28.518,28.518,0,0,1,3.3,5.911L56.336,89.737a6.6,6.6,0,0,0,1.043-3.129,9.866,9.866,0,0,0-1.043-3.651Z" transform="translate(20.676 23.26)"/>
    <path id="Path_26" data-name="Path 26" d="M57.1,89.837h1.565c2.086,0,3.3-.522,3.825-1.738a17.5,17.5,0,0,0,.7-6.084V38.727c0-3.477.348-5.911.869-7.127-1.217.174-2.086.348-2.608,1.043a3.439,3.439,0,0,0-.869,2.434,35.2,35.2,0,0,0-.174,4.868V83.231c0,2.086-.174,3.651-.7,4.346A5.775,5.775,0,0,1,57.1,89.837Z" transform="translate(42.164 23.334)"/>
    <path id="Path_27" data-name="Path 27" d="M77.914,4.9a73.013,73.013,0,1,0,73.014,73.013A73,73,0,0,0,77.914,4.9Zm39.636,46.416c-2.955,0-5.215.348-6.432,1.217a4.028,4.028,0,0,0-2.086,3.3,68.7,68.7,0,0,0-.348,7.823v38.767a10.414,10.414,0,0,0,.869,4.52,3.984,3.984,0,0,0,2.608,2.086,26.541,26.541,0,0,0,5.563.869v2.434H88.692V109.9a14.008,14.008,0,0,0,6.258-1.043,3.965,3.965,0,0,0,2.26-2.781,41.4,41.4,0,0,0,.348-5.737V56.7L75.132,111.986H72.524L50.62,58.443V95.124a17.511,17.511,0,0,0,2.434,9.735q2.347,3.39,7.823,4.694v2.434H38.1v-2.434a10.49,10.49,0,0,0,7.475-3.825c1.738-2.086,2.608-5.215,2.608-9.04V55.14a10.767,10.767,0,0,0-4.346-2.955,14.936,14.936,0,0,0-5.563-.869V48.882H58.791l19.992,47.98,19.644-47.98h19.3v2.434Z" transform="translate(3.618 3.618)"/>
    <path id="Path_28" data-name="Path 28" d="M32.215,61.7A9.114,9.114,0,0,1,30.3,65,27.377,27.377,0,0,1,27,67.611h9.387a6.97,6.97,0,0,1-2.608-2.434A9.185,9.185,0,0,1,32.215,61.7Z" transform="translate(19.937 45.56)"/>
    <path id="Path_29" data-name="Path 29" d="M81.532,163.237C36.681,163.237,0,126.557,0,81.532a81.532,81.532,0,1,1,81.532,81.705Zm0-159.934a78.229,78.229,0,1,0,78.229,78.229C159.934,38.419,124.818,3.3,81.532,3.3Z"/>
  </g>
</svg>
