<?xml version="1.0" encoding="utf-8"?>
<!-- Generator: Adobe Illustrator 23.0.1, SVG Export Plug-In . SVG Version: 6.00 Build 0)  -->
<svg version="1.1" id="Layer_1" xmlns="http://www.w3.org/2000/svg" xmlns:xlink="http://www.w3.org/1999/xlink" x="0px" y="0px"
	 viewBox="0 0 89.2 89.2" style="enable-background:new 0 0 89.2 89.2;" xml:space="preserve">
<style type="text/css">
	.st0{fill:#FFFDF3;}
</style>
<path id="Path_25" class="st0" d="M32.4,34.5c-0.4-1.2-1.1-2.4-1.9-3.4c-0.8-0.8-1.8-1.2-2.9-1.1h-1c0.9,0.3,1.7,0.9,2.4,1.6
	c0.7,1,1.3,2.1,1.8,3.2l11.3,27c0.3-0.5,0.5-1.1,0.6-1.7c-0.1-0.7-0.3-1.4-0.6-2L32.4,34.5z"/>
<path id="Path_26" class="st0" d="M54.3,61.9h0.9c1.1,0,1.8-0.3,2.1-0.9c0.3-1.1,0.4-2.2,0.4-3.3V34c-0.1-1.3,0.1-2.6,0.5-3.9
	c-0.7,0.1-1.1,0.2-1.4,0.6c-0.3,0.4-0.5,0.8-0.5,1.3c-0.1,0.9-0.1,1.8-0.1,2.7v23.7c0.1,0.8,0,1.6-0.4,2.4
	C55.3,61.2,54.8,61.6,54.3,61.9z"/>
<path id="Path_27" class="st0" d="M44.6,4.7c-22,0-39.9,17.9-39.9,39.9s17.9,39.9,39.9,39.9s39.9-17.9,39.9-39.9l0,0
	C84.5,22.6,66.6,4.7,44.6,4.7L44.6,4.7z M66.2,30.1c-1.2-0.1-2.4,0.1-3.5,0.7c-0.7,0.4-1.1,1-1.1,1.8c-0.1,1.4-0.2,2.8-0.2,4.3v21.2
	c0,0.8,0.1,1.7,0.5,2.5c0.3,0.6,0.8,1,1.4,1.1c1,0.3,2,0.4,3,0.5v1.3H50.4v-1.3c1.2,0.1,2.3-0.1,3.4-0.6c0.6-0.3,1.1-0.8,1.2-1.5
	c0.1-1,0.2-2.1,0.2-3.1V33.1L42.9,63.3h-1.4L29.5,34v20.1c-0.1,1.9,0.4,3.7,1.3,5.3c1.1,1.4,2.6,2.3,4.3,2.6v1.3H22.7V62
	c1.6-0.1,3.1-0.9,4.1-2.1c1-1.4,1.5-3.2,1.4-4.9V32.3c-0.6-0.7-1.5-1.3-2.4-1.6c-1-0.3-2-0.5-3-0.5v-1.3H34l10.9,26.2l10.7-26.2
	h10.5L66.2,30.1L66.2,30.1z"/>
<path id="Path_28" class="st0" d="M28.5,58.7c-0.2,0.7-0.6,1.3-1,1.8c-0.6,0.5-1.2,1-1.8,1.4h5.1c-0.6-0.3-1.1-0.8-1.4-1.3
	C28.9,60,28.7,59.4,28.5,58.7z"/>
<path id="Path_29" class="st0" d="M44.6,89.3C20,89.3,0,69.4-0.1,44.7C-0.1,20.1,19.8,0.1,44.5,0c24.6,0,44.6,19.9,44.7,44.6l0,0
	C89.1,69.2,69.2,89.2,44.6,89.3z M44.6,1.8C21,1.8,1.8,20.9,1.8,44.6c0,23.6,19.1,42.8,42.8,42.8s42.8-19.1,42.8-42.8
	C87.3,21,68.2,1.9,44.6,1.8L44.6,1.8z"/>
</svg>
