<svg xmlns="http://www.w3.org/2000/svg" viewBox="3195.791 4068.791 183.654 183.654">
  <g id="Melon_Logo" data-name="Melon Logo" transform="translate(3195.791 4068.791)">
    <g id="Group_1" data-name="Group 1" transform="translate(9.653 9.653)">
      <path id="Path_1" data-name="Path 1" d="M45.1,90.738h1.733c2.228,0,3.713-.743,4.455-1.98a22.194,22.194,0,0,0,.743-6.93V33.068c0-3.96.248-6.683.99-8.168a4.1,4.1,0,0,0-2.97,1.238,4.5,4.5,0,0,0-.99,2.723,33.472,33.472,0,0,0-.248,5.693v48.76a11.4,11.4,0,0,1-.743,4.95C47.823,89.006,46.833,89.748,45.1,90.738Z" transform="translate(56.875 27.077)"/>
      <path id="Path_2" data-name="Path 2" d="M27.24,48.8a9.32,9.32,0,0,1-2.228,3.713,24.335,24.335,0,0,1-3.713,2.97H31.943a7.868,7.868,0,0,1-2.97-2.723A19.159,19.159,0,0,1,27.24,48.8Z" transform="translate(21.767 62.333)"/>
      <path id="Path_3" data-name="Path 3" d="M33.981,34.158a23.881,23.881,0,0,0-3.96-7.178C28.783,25.743,26.8,25,24.08,25H22.1a11.957,11.957,0,0,1,4.95,3.465,26.713,26.713,0,0,1,3.713,6.683l23.266,55.69a6.768,6.768,0,0,0,.99-3.465,10.106,10.106,0,0,0-.99-3.96Z" transform="translate(22.947 27.225)"/>
      <path id="Path_4" data-name="Path 4" d="M86.074,3.9a82.174,82.174,0,1,0,82.174,82.174A82.288,82.288,0,0,0,86.074,3.9Zm44.552,52.225c-3.465,0-5.693.5-7.178,1.238a4.5,4.5,0,0,0-2.475,3.713,72.815,72.815,0,0,0-.248,8.663V113.3c0,2.228.248,3.96.99,4.95a4.352,4.352,0,0,0,2.97,2.475,26.623,26.623,0,0,0,6.188.99v2.723H97.954v-2.723a15.709,15.709,0,0,0,6.93-1.238,4.1,4.1,0,0,0,2.475-3.218,35.211,35.211,0,0,0,.5-6.435V62.313l-25,62.125h-2.97L55.135,64.293v41.334c0,4.7.99,8.168,2.723,10.891s4.7,4.455,8.91,5.2v2.723H41.274v-2.723a11.163,11.163,0,0,0,8.415-4.208c1.98-2.475,2.97-5.94,2.97-10.148V60.333a13.809,13.809,0,0,0-4.95-3.465,14.4,14.4,0,0,0-6.435-.743V53.4H64.293L86.816,107.36,108.845,53.4h21.781v2.723Z" transform="translate(-3.9 -3.9)"/>
    </g>
    <g id="Group_3" data-name="Group 3">
      <g id="Group_2" data-name="Group 2">
        <path id="Path_5" data-name="Path 5" d="M91.827,183.654a91.827,91.827,0,1,1,91.827-91.827A91.794,91.794,0,0,1,91.827,183.654Zm0-179.941a88.114,88.114,0,1,0,88.114,88.114A88.309,88.309,0,0,0,91.827,3.713Z"/>
      </g>
    </g>
  </g>
</svg>
