<?xml version="1.0" encoding="utf-8"?>
<!-- Generator: Adobe Illustrator 22.0.0, SVG Export Plug-In . SVG Version: 6.00 Build 0)  -->
<svg version="1.1" id="Layer_1" xmlns="http://www.w3.org/2000/svg" xmlns:xlink="http://www.w3.org/1999/xlink" x="0px" y="0px"
	 viewBox="0 0 185 60" style="enable-background:new 0 0 185 60;" xml:space="preserve">
<style type="text/css">
	.st0{font-family:'CrimsonText-Regular';}
	.st1{font-size:40.8237px;}
</style>
<g>
	<g>
		<text transform="matrix(1 0 0 1 68.5742 41.8354)" class="st0 st1">Oyente</text>
	</g>
	<g>
		<g>
			<g>
				<path d="M30.4,59.5C14.1,59.5,0.9,46.3,0.9,30c0-16.3,13.2-29.5,29.5-29.5c16.3,0,29.5,13.2,29.5,29.5
					C59.9,46.3,46.6,59.5,30.4,59.5z M30.4,1.7C14.8,1.7,2.1,14.4,2.1,30c0,15.6,12.7,28.3,28.3,28.3C46,58.3,58.7,45.6,58.7,30
					C58.7,14.4,46,1.7,30.4,1.7z"/>
			</g>
		</g>
		<g>
			<path d="M30.5,40.8V17.3c0,0-0.1-0.1-0.1-0.1c-2.9,2.8-6.3,4-10.7,4c0,7.3-1.5,17.6,10.7,21.9c0,0,0.1,0,0.1-0.1
				c8.4-3.7,9.5-9.5,9.5-9.5C37.9,37.7,30.5,40.8,30.5,40.8z"/>
			<path d="M30.4,3.6C15.8,3.6,4,15.4,4,30c0,14.6,11.8,26.4,26.4,26.4c14.6,0,26.4-11.8,26.4-26.4C56.8,15.4,44.9,3.6,30.4,3.6z
				 M30.6,43.9L30.4,44l-0.3-0.1c-11.6-4-11.4-13.5-11.3-20.5c0-0.7,0-1.5,0-2.2v-0.8h0.8c4.2,0,7.4-1.2,10.1-3.8l0.6-0.6l0.6,0.6
				c2.7,2.6,5.9,3.8,10.1,3.8h0.8v0.8c0,0.7,0,1.4,0,2.2C42,30.3,42.2,39.9,30.6,43.9z"/>
		</g>
	</g>
</g>
</svg>
