<svg xmlns="http://www.w3.org/2000/svg" viewBox="3092 5573 74 74">
  <defs>
    <style>
      .cls-1 {
        fill: #fff;
        stroke: #c9c9c9;
      }

      .cls-2 {
        fill: #171717;
      }

      .cls-3 {
        stroke: none;
      }

      .cls-4 {
        fill: none;
      }
    </style>
  </defs>
  <g id="Participation" transform="translate(2345 295)">
    <g id="Base" class="cls-1" transform="translate(747 5278)">
      <rect class="cls-3" width="74" height="74" rx="3"/>
      <rect class="cls-4" x="0.5" y="0.5" width="73" height="73" rx="2.5"/>
    </g>
    <path id="Path_86" data-name="Path 86" class="cls-2" d="M14.5,29A14.5,14.5,0,1,0,0,14.5,14.519,14.519,0,0,0,14.5,29ZM.985,15.165l2.4-2.4,2.453,2.453a8.7,8.7,0,0,0,8.011,7.945l-2.109,2.109a.485.485,0,0,0,0,.683l2.054,2.054A13.541,13.541,0,0,1,.985,15.165ZM14.5,6.767A7.733,7.733,0,1,1,6.767,14.5,7.74,7.74,0,0,1,14.5,6.767Zm.665,21.249-2.4-2.4,2.453-2.453a8.7,8.7,0,0,0,7.9-7.57l2.151,2.151a.474.474,0,0,0,.344.139.5.5,0,0,0,.344-.139l2.018-2.018A13.554,13.554,0,0,1,15.165,28.015ZM28.027,14.307l-2.411,2.411-2.429-2.429a8.7,8.7,0,0,0-7.6-8.416l2.151-2.151a.485.485,0,0,0,0-.683L15.726,1.027A13.543,13.543,0,0,1,28.027,14.307ZM14.307.973l2.411,2.411L14.289,5.812A8.7,8.7,0,0,0,5.83,13.847L3.722,11.739a.485.485,0,0,0-.683,0L.985,13.793A13.545,13.545,0,0,1,14.307.973Z" transform="translate(770 5301)"/>
  </g>
</svg>
