<svg xmlns="http://www.w3.org/2000/svg" viewBox="3040 10863.673 25.906 22.549">
  <defs>
    <style>
      .cls-1 {
        fill: #4a4a4a;
      }
    </style>
  </defs>
  <g id="Telegram" transform="translate(2109 5839)">
    <path id="Path_46" data-name="Path 46" class="cls-1" d="M.453,10.845l5.968,2.223,2.31,7.425a.7.7,0,0,0,1.112.335l3.324-2.709a.988.988,0,0,1,1.209-.032l6,4.36a.7.7,0,0,0,1.1-.421L25.891.883a.7.7,0,0,0-.939-.8L.453,9.528a.7.7,0,0,0,0,1.317Zm7.911,1.036L20.031,4.693a.205.205,0,0,1,.248.324l-9.627,8.947a1.957,1.957,0,0,0-.615,1.2L9.713,17.59a.3.3,0,0,1-.594.043L7.857,13.2a1.169,1.169,0,0,1,.507-1.317Zm0,0" transform="translate(931 5024.639)"/>
  </g>
</svg>
