<?xml version="1.0" encoding="utf-8"?>
<!-- Generator: Adobe Illustrator 22.0.0, SVG Export Plug-In . SVG Version: 6.00 Build 0)  -->
<svg version="1.1" id="Layer_1" xmlns="http://www.w3.org/2000/svg" xmlns:xlink="http://www.w3.org/1999/xlink" x="0px" y="0px"
	 viewBox="0 0 609.3 337.6" style="enable-background:new 0 0 609.3 337.6;" xml:space="preserve">
<style type="text/css">
	.st0{fill:#C9C9C9;}
	.st1{fill:#F8F8F8;stroke:#C9C9C9;stroke-miterlimit:10;}
	.st2{fill:#FFFFFF;}
	.st3{fill:#231F20;}
	.st4{fill:#FFFFFF;stroke:#BCBEC0;stroke-miterlimit:10;}
	.st5{fill:#D1D3D4;}
	.st6{fill:none;stroke:#BCBEC0;stroke-miterlimit:10;stroke-dasharray:3;}
</style>
<rect id="Rectangle_20" y="274.7" class="st0" width="609.3" height="1.3"/>
<path id="Path_363" class="st1" d="M491,275.1c0-102.9-83.5-186.4-186.4-186.4s-186.4,83.5-186.4,186.4H491z"/>
<path id="Path_364" class="st2" d="M409.2,274.1c-1.7-57.7-49.8-103.3-107.6-101.6C246.1,174,201.5,218.6,200,274.1H409.2z"/>
<g id="Group_165" transform="translate(244.426 216.995)">
	<circle id="Ellipse_11" class="st2" cx="60.3" cy="60.3" r="60.3"/>
	<g id="Group_164">
		<g id="Group_163">
			<g id="Group_160" transform="translate(6.353 6.353)">
				<path id="Path_365" class="st3" d="M37.4,40.3c-0.6-1.7-1.5-3.3-2.6-4.7c-1.1-1-2.5-1.5-4-1.4h-1.2c1.2,0.5,2.3,1.2,3.2,2.2
					c1,1.3,1.8,2.8,2.4,4.4l15.3,36.4c0.4-0.7,0.7-1.5,0.7-2.3c-0.1-0.9-0.3-1.8-0.7-2.6L37.4,40.3z"/>
				<path id="Path_366" class="st3" d="M67,77.3h1.2c1.6,0,2.5-0.5,2.9-1.3c0.5-1.5,0.7-3,0.6-4.6v-32c-0.1-1.8,0.1-3.6,0.6-5.3
					c-0.7,0-1.4,0.3-1.9,0.7c-0.4,0.5-0.6,1.2-0.7,1.8c-0.1,1.2-0.2,2.5-0.1,3.7v31.9c0.1,1.1-0.1,2.2-0.5,3.2
					C68.5,76.2,67.8,76.8,67,77.3z"/>
				<path id="Path_367" class="st3" d="M53.9,0C24.2,0,0,24.2,0,53.9s24.2,53.9,53.9,53.9s53.9-24.2,53.9-53.9
					C107.9,24.2,83.7,0,53.9,0z M83.1,34.2c-1.6-0.1-3.2,0.2-4.7,0.8c-0.9,0.5-1.5,1.4-1.6,2.4c-0.2,1.9-0.3,3.8-0.2,5.8v28.7
					c0,1.1,0.2,2.3,0.6,3.4c0.4,0.8,1.1,1.4,1.9,1.6c1.3,0.3,2.7,0.5,4.1,0.6v1.8H61.9v-1.8c1.6,0.1,3.1-0.2,4.6-0.8
					c0.9-0.4,1.5-1.1,1.7-2c0.2-1.4,0.3-2.8,0.2-4.2v-32L51.9,79.1H50L33.7,39.6v27.1c-0.1,2.5,0.5,5,1.8,7.2
					c1.4,1.8,3.5,3.1,5.8,3.5v1.8H24.5v-1.8c2.1-0.1,4.1-1.1,5.5-2.8c1.3-1.6,1.9-3.8,1.9-6.7V37.2c-0.9-0.9-2-1.7-3.2-2.3
					c-1.3-0.5-2.8-0.7-4.2-0.6v-1.8h15.1l14.7,35.4l14.5-35.4h14.3L83.1,34.2L83.1,34.2z"/>
				<path id="Path_368" class="st3" d="M32.2,73c-0.3,0.9-0.8,1.7-1.4,2.4c-0.7,0.8-1.6,1.4-2.5,1.9h7c-0.8-0.4-1.5-1-1.9-1.8
					C32.8,74.8,32.5,73.9,32.2,73z"/>
			</g>
			<g id="Group_162">
				<g id="Group_161">
					<path id="Path_369" class="st3" d="M60.3,120.6C27,120.6,0,93.6,0,60.3S27,0,60.3,0s60.3,27,60.3,60.3l0,0
						C120.5,93.6,93.6,120.5,60.3,120.6z M60.3,2.5C28.4,2.5,2.5,28.4,2.5,60.3s25.9,57.8,57.8,57.8s57.8-25.9,57.8-57.8l0,0
						C118.1,28.4,92.2,2.5,60.3,2.5L60.3,2.5z"/>
				</g>
			</g>
		</g>
	</g>
</g>
<g id="Group_170" transform="translate(486.095 93.284)">
	<g id="Group_167" transform="translate(8.871)">
		<path id="Path_370" class="st4" d="M22.1,30.6H3.2c-1.8,0-3.2-1.4-3.2-3.2l0,0V3.2C0,1.5,1.4,0,3.2,0l0,0H22
			c1.8,0,3.2,1.4,3.2,3.2l0,0v24.1C25.3,29.1,23.9,30.6,22.1,30.6L22.1,30.6z"/>
		<g id="Group_166" transform="translate(4.915 5.514)">
			<path id="Path_371" class="st5" d="M14.9,1.4h-6c-0.4,0-0.7-0.3-0.7-0.7l0,0C8.2,0.3,8.5,0,8.9,0h6c0.4,0,0.7,0.3,0.7,0.7l0,0
				C15.6,1.1,15.3,1.4,14.9,1.4L14.9,1.4z"/>
			<path id="Path_372" class="st5" d="M14.9,5H0.7C0.3,5,0,4.7,0,4.3l0,0c0-0.4,0.3-0.7,0.7-0.7h14.1c0.4,0,0.7,0.3,0.7,0.7l0,0
				C15.6,4.7,15.3,5,14.9,5L14.9,5z"/>
			<path id="Path_373" class="st5" d="M14.9,8.6H0.7C0.3,8.6,0,8.3,0,7.9l0,0c0-0.4,0.3-0.7,0.7-0.7h14.1c0.4,0,0.7,0.3,0.7,0.7l0,0
				C15.6,8.3,15.3,8.6,14.9,8.6L14.9,8.6z"/>
			<path id="Path_374" class="st5" d="M14.9,12.2H0.7c-0.4,0-0.7-0.3-0.7-0.7l0,0c0-0.4,0.3-0.7,0.7-0.7h14.1c0.4,0,0.7,0.3,0.7,0.7
				l0,0C15.6,11.9,15.3,12.2,14.9,12.2L14.9,12.2z"/>
			<path id="Path_375" class="st5" d="M14.9,15.9H0.7c-0.4,0-0.7-0.3-0.7-0.7l0,0c0-0.4,0.3-0.7,0.7-0.7h14.1c0.4,0,0.7,0.3,0.7,0.7
				l0,0C15.6,15.6,15.3,15.9,14.9,15.9z"/>
			<path id="Path_376" class="st5" d="M6.4,19.5H0.7c-0.4,0-0.7-0.3-0.7-0.7l0,0c0-0.4,0.3-0.7,0.7-0.7h5.6c0.4,0,0.7,0.3,0.7,0.7
				l0,0C7,19.2,6.7,19.5,6.4,19.5z"/>
		</g>
	</g>
	<g id="Group_169" transform="translate(0 9.59)">
		<path id="Path_377" class="st4" d="M22.1,30.6H3.2c-1.8,0-3.2-1.4-3.2-3.2l0,0V3.2C0,1.5,1.4,0,3.2,0l0,0H22
			c1.8,0,3.2,1.4,3.2,3.2l0,0v24.1C25.3,29.1,23.9,30.6,22.1,30.6L22.1,30.6z"/>
		<g id="Group_168" transform="translate(4.915 5.634)">
			<path id="Path_378" class="st5" d="M14.9,1.4h-6c-0.4,0-0.7-0.3-0.7-0.7l0,0C8.2,0.3,8.5,0,8.9,0h6c0.4,0,0.7,0.3,0.7,0.7l0,0
				C15.6,1.1,15.3,1.4,14.9,1.4z"/>
			<path id="Path_379" class="st5" d="M14.9,5H0.7C0.3,5,0,4.7,0,4.3l0,0c0-0.4,0.3-0.7,0.7-0.7h14.1c0.4,0,0.7,0.3,0.7,0.7l0,0
				C15.6,4.7,15.3,5,14.9,5z"/>
			<path id="Path_380" class="st5" d="M14.9,8.6H0.7C0.3,8.6,0,8.3,0,7.9l0,0c0-0.4,0.3-0.7,0.7-0.7h14.1c0.4,0,0.7,0.3,0.7,0.7l0,0
				C15.6,8.3,15.3,8.6,14.9,8.6z"/>
			<path id="Path_381" class="st5" d="M14.9,12.2H0.7c-0.4,0-0.7-0.3-0.7-0.7l0,0c0-0.4,0.3-0.7,0.7-0.7h14.1c0.4,0,0.7,0.3,0.7,0.7
				l0,0C15.6,11.9,15.3,12.2,14.9,12.2z"/>
			<path id="Path_382" class="st5" d="M14.9,15.8H0.7c-0.4,0-0.7-0.3-0.7-0.7l0,0c0-0.4,0.3-0.7,0.7-0.7h14.1c0.4,0,0.7,0.3,0.7,0.7
				l0,0C15.6,15.5,15.3,15.8,14.9,15.8z"/>
			<path id="Path_383" class="st5" d="M6.4,19.4H0.7c-0.4,0-0.7-0.3-0.7-0.7l0,0C0,18.3,0.3,18,0.7,18h5.6C6.7,18,7,18.3,7,18.7l0,0
				C7,19.1,6.7,19.4,6.4,19.4z"/>
		</g>
	</g>
</g>
<g id="Group_175" transform="translate(379.766 93.164)">
	<g id="Group_172" transform="translate(8.871)">
		<path id="Path_384" class="st4" d="M22.1,30.4H3.2C1.5,30.5,0,29,0,27.2l0,0v-24C0,1.5,1.4,0,3.2,0l0,0H22c1.8,0,3.2,1.4,3.2,3.2
			l0,0v24.1C25.2,29.1,23.8,30.5,22.1,30.4z"/>
		<g id="Group_171" transform="translate(4.915 5.514)">
			<path id="Path_385" class="st5" d="M14.9,1.4h-6c-0.4,0-0.7-0.3-0.7-0.7l0,0C8.2,0.3,8.5,0,8.9,0h6c0.4,0,0.7,0.3,0.7,0.7l0,0
				C15.6,1.1,15.3,1.4,14.9,1.4z"/>
			<path id="Path_386" class="st5" d="M14.9,5H0.7C0.3,5,0,4.7,0,4.3l0,0c0-0.4,0.3-0.7,0.7-0.7h14.1c0.4,0,0.7,0.3,0.7,0.7l0,0
				C15.6,4.7,15.3,5,14.9,5z"/>
			<path id="Path_387" class="st5" d="M14.9,8.6H0.7C0.3,8.6,0,8.3,0,7.9l0,0c0-0.4,0.3-0.7,0.7-0.7h14.1c0.4,0,0.7,0.3,0.7,0.7l0,0
				C15.6,8.3,15.3,8.6,14.9,8.6L14.9,8.6z"/>
			<path id="Path_388" class="st5" d="M14.9,12.2H0.7c-0.4,0-0.7-0.3-0.7-0.7l0,0c0-0.4,0.3-0.7,0.7-0.7h14.1c0.4,0,0.7,0.3,0.7,0.7
				l0,0C15.6,11.9,15.3,12.2,14.9,12.2L14.9,12.2z"/>
			<path id="Path_389" class="st5" d="M14.9,15.8H0.7c-0.4,0-0.7-0.3-0.7-0.7l0,0c0-0.4,0.3-0.7,0.7-0.7h14.1c0.4,0,0.7,0.3,0.7,0.7
				l0,0C15.6,15.5,15.3,15.8,14.9,15.8L14.9,15.8z"/>
			<path id="Path_390" class="st5" d="M6.4,19.4H0.7c-0.4,0-0.7-0.3-0.7-0.7l0,0C0,18.3,0.3,18,0.7,18h5.6C6.7,18,7,18.3,7,18.7l0,0
				C7.1,19.1,6.8,19.4,6.4,19.4L6.4,19.4z"/>
		</g>
	</g>
	<g id="Group_174" transform="translate(0 9.59)">
		<path id="Path_391" class="st4" d="M22.1,30.6H3.2c-1.8,0-3.2-1.4-3.2-3.2l0,0V3.2C0,1.5,1.4,0,3.2,0l0,0H22
			c1.8,0,3.2,1.4,3.2,3.2l0,0v24.1C25.3,29.1,23.9,30.6,22.1,30.6L22.1,30.6z"/>
		<g id="Group_173" transform="translate(4.915 5.514)">
			<path id="Path_392" class="st5" d="M14.9,1.4h-6c-0.4,0-0.7-0.3-0.7-0.7l0,0C8.2,0.3,8.5,0,8.9,0h6c0.4,0,0.7,0.3,0.7,0.7l0,0
				C15.6,1.1,15.3,1.4,14.9,1.4L14.9,1.4z"/>
			<path id="Path_393" class="st5" d="M14.9,5H0.7C0.3,5,0,4.7,0,4.3l0,0c0-0.4,0.3-0.7,0.7-0.7h14.1c0.4,0,0.7,0.3,0.7,0.7l0,0
				C15.6,4.7,15.3,5,14.9,5L14.9,5z"/>
			<path id="Path_394" class="st5" d="M14.9,8.8H0.7C0.3,8.7,0,8.4,0,8l0,0c0-0.4,0.3-0.7,0.7-0.7h14.1c0.4,0,0.7,0.3,0.7,0.7l0,0
				C15.6,8.4,15.3,8.7,14.9,8.8z"/>
			<path id="Path_395" class="st5" d="M14.9,12.3H0.7C0.3,12.3,0,12,0,11.6l0,0c0-0.4,0.3-0.7,0.7-0.7h14.1c0.4,0,0.7,0.3,0.7,0.7
				l0,0C15.6,12,15.3,12.3,14.9,12.3z"/>
			<path id="Path_396" class="st5" d="M14.9,15.9H0.7c-0.4,0-0.7-0.3-0.7-0.7l0,0c0-0.4,0.3-0.7,0.7-0.7h14.1c0.4,0,0.7,0.3,0.7,0.7
				l0,0C15.6,15.6,15.3,15.9,14.9,15.9z"/>
			<path id="Path_397" class="st5" d="M6.4,19.5H0.7c-0.4,0-0.7-0.3-0.7-0.7l0,0c0-0.4,0.3-0.7,0.7-0.7h5.6c0.4,0,0.7,0.3,0.7,0.7
				l0,0C7.1,19.2,6.8,19.5,6.4,19.5L6.4,19.5z"/>
		</g>
	</g>
</g>
<g id="Group_180" transform="translate(320.307 0.5)">
	<g id="Group_177" transform="translate(8.751)">
		<path id="Path_398" class="st4" d="M22.1,30.6H3.2c-1.8,0-3.2-1.4-3.2-3.2l0,0V3.2C0,1.5,1.4,0,3.2,0l0,0H22
			c1.8,0,3.2,1.4,3.2,3.2l0,0v24.1C25.3,29.1,23.9,30.6,22.1,30.6L22.1,30.6z"/>
		<g id="Group_176" transform="translate(4.915 5.514)">
			<path id="Path_399" class="st5" d="M14.9,1.4h-6c-0.4,0-0.7-0.3-0.7-0.7l0,0C8.2,0.3,8.5,0,8.9,0h6c0.4,0,0.7,0.3,0.7,0.7l0,0
				C15.6,1.1,15.3,1.4,14.9,1.4z"/>
			<path id="Path_400" class="st5" d="M14.9,5H0.7C0.3,5,0,4.7,0,4.3l0,0c0-0.4,0.3-0.7,0.7-0.7h14.1c0.4,0,0.7,0.3,0.7,0.7l0,0
				C15.6,4.7,15.3,5,14.9,5L14.9,5z"/>
			<path id="Path_401" class="st5" d="M14.9,8.6H0.7C0.3,8.6,0,8.3,0,7.9l0,0c0-0.4,0.3-0.7,0.7-0.7h14.1c0.4,0,0.7,0.3,0.7,0.7l0,0
				C15.6,8.3,15.3,8.6,14.9,8.6L14.9,8.6z"/>
			<path id="Path_402" class="st5" d="M14.9,12.2H0.7c-0.4,0-0.7-0.3-0.7-0.7l0,0c0-0.4,0.3-0.7,0.7-0.7h14.1c0.4,0,0.7,0.3,0.7,0.7
				l0,0C15.6,11.9,15.3,12.2,14.9,12.2L14.9,12.2z"/>
			<path id="Path_403" class="st5" d="M14.9,15.9H0.7c-0.4,0-0.7-0.3-0.7-0.7l0,0c0-0.4,0.3-0.7,0.7-0.7h14.1c0.4,0,0.7,0.3,0.7,0.7
				l0,0C15.6,15.6,15.3,15.9,14.9,15.9z"/>
			<path id="Path_404" class="st5" d="M6.4,19.5H0.7c-0.4,0-0.7-0.3-0.7-0.7l0,0c0-0.4,0.3-0.7,0.7-0.7h5.6c0.4,0,0.7,0.3,0.7,0.7
				l0,0C7.1,19.2,6.8,19.5,6.4,19.5L6.4,19.5z"/>
		</g>
	</g>
	<g id="Group_179" transform="translate(0 9.59)">
		<path id="Path_405" class="st4" d="M22.1,30.6H3.2c-1.8,0-3.2-1.4-3.2-3.2l0,0V3.2C0,1.5,1.4,0,3.2,0l0,0H22
			c1.8,0,3.2,1.4,3.2,3.2l0,0v24.1C25.2,29.1,23.8,30.5,22.1,30.6z"/>
		<g id="Group_178" transform="translate(4.795 5.634)">
			<path id="Path_406" class="st5" d="M14.9,1.4h-6c-0.4,0-0.7-0.3-0.7-0.7l0,0C8.2,0.3,8.5,0,8.9,0h6c0.4,0,0.7,0.3,0.7,0.7l0,0
				C15.6,1.1,15.3,1.4,14.9,1.4L14.9,1.4z"/>
			<path id="Path_407" class="st5" d="M14.9,5H0.7C0.3,5,0,4.7,0,4.3l0,0c0-0.4,0.3-0.7,0.7-0.7h14.1c0.4,0,0.7,0.3,0.7,0.7l0,0
				C15.6,4.7,15.3,5,14.9,5L14.9,5z"/>
			<path id="Path_408" class="st5" d="M14.9,8.6H0.7C0.3,8.6,0,8.3,0,7.9l0,0c0-0.4,0.3-0.7,0.7-0.7h14.1c0.4,0,0.7,0.3,0.7,0.7l0,0
				C15.6,8.3,15.3,8.6,14.9,8.6L14.9,8.6z"/>
			<path id="Path_409" class="st5" d="M14.9,12.2H0.7c-0.4,0-0.7-0.3-0.7-0.7l0,0c0-0.4,0.3-0.7,0.7-0.7h14.1c0.4,0,0.7,0.3,0.7,0.7
				l0,0C15.6,11.9,15.3,12.2,14.9,12.2L14.9,12.2z"/>
			<path id="Path_410" class="st5" d="M14.9,15.8H0.7c-0.4,0-0.7-0.3-0.7-0.7l0,0c0-0.4,0.3-0.7,0.7-0.7h14.1c0.4,0,0.7,0.3,0.7,0.7
				l0,0C15.6,15.5,15.3,15.8,14.9,15.8L14.9,15.8z"/>
			<path id="Path_411" class="st5" d="M6.5,19.4H0.8c-0.4,0-0.7-0.3-0.7-0.7l0,0c0-0.4,0.3-0.7,0.7-0.7h5.6c0.4,0,0.7,0.3,0.7,0.7
				l0,0C7.2,19.1,6.9,19.4,6.5,19.4z"/>
		</g>
	</g>
</g>
<g id="Group_185" transform="translate(213.019 6.014)">
	<g id="Group_182" transform="translate(8.871)">
		<path id="Path_412" class="st4" d="M22.1,30.6H3.2c-1.8,0-3.2-1.4-3.2-3.2l0,0V3.2C0,1.5,1.4,0,3.2,0l0,0H22
			c1.8,0,3.2,1.4,3.2,3.2l0,0v24.1C25.2,29.1,23.8,30.5,22.1,30.6z"/>
		<g id="Group_181" transform="translate(4.795 5.514)">
			<path id="Path_413" class="st5" d="M14.9,1.4h-6c-0.4,0-0.7-0.3-0.7-0.7l0,0C8.2,0.3,8.5,0,8.9,0h6c0.4,0,0.7,0.3,0.7,0.7l0,0
				C15.7,1.2,15.3,1.4,14.9,1.4z"/>
			<path id="Path_414" class="st5" d="M14.9,5H0.7C0.3,5,0,4.7,0,4.3l0,0c0-0.4,0.3-0.7,0.7-0.7h14.1c0.4,0,0.7,0.3,0.7,0.7l0,0
				C15.7,4.8,15.3,5,14.9,5z"/>
			<path id="Path_415" class="st5" d="M14.9,8.6H0.7C0.3,8.6,0,8.3,0,7.9l0,0c0-0.4,0.3-0.7,0.7-0.7h14.1c0.4,0,0.7,0.3,0.7,0.7l0,0
				C15.7,8.4,15.3,8.6,14.9,8.6z"/>
			<path id="Path_416" class="st5" d="M14.9,12.3H0.7C0.3,12.3,0,12,0,11.6l0,0c0-0.4,0.3-0.7,0.7-0.7h14.1c0.4,0,0.7,0.3,0.7,0.7
				l0,0C15.7,12,15.3,12.3,14.9,12.3z"/>
			<path id="Path_417" class="st5" d="M14.9,15.9H0.7c-0.4,0-0.7-0.3-0.7-0.7l0,0c0-0.4,0.3-0.7,0.7-0.7h14.1c0.4,0,0.7,0.3,0.7,0.7
				l0,0C15.7,15.6,15.3,15.9,14.9,15.9z"/>
			<path id="Path_418" class="st5" d="M6.5,19.5H0.8c-0.4,0-0.7-0.3-0.7-0.7l0,0c0-0.4,0.3-0.7,0.7-0.7h5.6c0.4,0,0.7,0.3,0.7,0.7
				l0,0C7.2,19.2,6.9,19.5,6.5,19.5z"/>
		</g>
	</g>
	<g id="Group_184" transform="translate(0 9.59)">
		<path id="Path_419" class="st4" d="M22.1,30.6H3.2c-1.8,0-3.2-1.4-3.2-3.2l0,0V3.2C0,1.5,1.4,0,3.2,0l0,0H22
			c1.8,0,3.2,1.4,3.2,3.2l0,0v24.1C25.3,29.1,23.9,30.6,22.1,30.6L22.1,30.6z"/>
		<g id="Group_183" transform="translate(4.915 5.634)">
			<path id="Path_420" class="st5" d="M14.9,1.4h-6c-0.4,0-0.7-0.3-0.7-0.7l0,0C8.2,0.3,8.5,0,8.9,0h6c0.4,0,0.7,0.3,0.7,0.7l0,0
				C15.6,1.1,15.3,1.4,14.9,1.4z"/>
			<path id="Path_421" class="st5" d="M14.9,5H0.7C0.3,5,0,4.7,0,4.3l0,0c0-0.4,0.3-0.7,0.7-0.7h14.1c0.4,0,0.7,0.3,0.7,0.7l0,0
				C15.6,4.7,15.3,5,14.9,5z"/>
			<path id="Path_422" class="st5" d="M14.9,8.6H0.7C0.3,8.6,0,8.3,0,7.9l0,0c0-0.4,0.3-0.7,0.7-0.7h14.1c0.4,0,0.7,0.3,0.7,0.7l0,0
				C15.6,8.3,15.3,8.6,14.9,8.6z"/>
			<path id="Path_423" class="st5" d="M14.9,12.2H0.7c-0.4,0-0.7-0.3-0.7-0.7l0,0c0-0.4,0.3-0.7,0.7-0.7h14.1c0.4,0,0.7,0.3,0.7,0.7
				l0,0C15.6,11.9,15.3,12.2,14.9,12.2z"/>
			<path id="Path_424" class="st5" d="M14.9,15.8H0.7c-0.4,0-0.7-0.3-0.7-0.7l0,0c0-0.4,0.3-0.7,0.7-0.7h14.1c0.4,0,0.7,0.3,0.7,0.7
				l0,0C15.6,15.5,15.3,15.8,14.9,15.8z"/>
			<path id="Path_425" class="st5" d="M6.4,19.4H0.7c-0.4,0-0.7-0.3-0.7-0.7l0,0C0,18.3,0.3,18,0.7,18h5.6C6.7,18,7,18.3,7,18.7l0,0
				C7,19.1,6.7,19.4,6.4,19.4z"/>
		</g>
	</g>
</g>
<g id="Group_190" transform="translate(162.551 124.931)">
	<g id="Group_187" transform="translate(8.871)">
		<path id="Path_426" class="st4" d="M22.1,30.4H3.2C1.5,30.5,0,29,0,27.2l0,0v-24C0,1.5,1.4,0,3.2,0l0,0H22c1.8,0,3.2,1.4,3.2,3.2
			l0,0v24.1C25.2,29.1,23.8,30.5,22.1,30.4z"/>
		<g id="Group_186" transform="translate(4.915 5.514)">
			<path id="Path_427" class="st5" d="M14.9,1.4h-6c-0.4,0-0.7-0.3-0.7-0.7l0,0C8.2,0.3,8.5,0,8.9,0h6c0.4,0,0.7,0.3,0.7,0.7l0,0
				C15.6,1.1,15.3,1.4,14.9,1.4z"/>
			<path id="Path_428" class="st5" d="M14.9,5H0.7C0.3,5,0,4.7,0,4.3l0,0c0-0.4,0.3-0.7,0.7-0.7h14.1c0.4,0,0.7,0.3,0.7,0.7l0,0
				C15.6,4.7,15.3,5,14.9,5z"/>
			<path id="Path_429" class="st5" d="M14.9,8.6H0.7C0.3,8.6,0,8.3,0,7.9l0,0c0-0.4,0.3-0.7,0.7-0.7h14.1c0.4,0,0.7,0.3,0.7,0.7l0,0
				C15.6,8.3,15.3,8.6,14.9,8.6z"/>
			<path id="Path_430" class="st5" d="M14.9,12.2H0.7c-0.4,0-0.7-0.3-0.7-0.7l0,0c0-0.4,0.3-0.7,0.7-0.7h14.1c0.4,0,0.7,0.3,0.7,0.7
				l0,0C15.6,11.9,15.3,12.2,14.9,12.2L14.9,12.2z"/>
			<path id="Path_431" class="st5" d="M14.9,15.8H0.7c-0.4,0-0.7-0.3-0.7-0.7l0,0c0-0.4,0.3-0.7,0.7-0.7h14.1c0.4,0,0.7,0.3,0.7,0.7
				l0,0C15.6,15.5,15.3,15.8,14.9,15.8L14.9,15.8z"/>
			<path id="Path_432" class="st5" d="M6.4,19.4H0.7c-0.4,0-0.7-0.3-0.7-0.7l0,0C0,18.3,0.3,18,0.7,18h5.6C6.7,18,7,18.3,7,18.7l0,0
				C7.1,19.1,6.8,19.4,6.4,19.4L6.4,19.4z"/>
		</g>
	</g>
	<g id="Group_189" transform="translate(0 9.59)">
		<path id="Path_433" class="st4" d="M22.1,30.6H3.2c-1.8,0-3.2-1.4-3.2-3.2l0,0V3.2C0,1.5,1.4,0,3.2,0l0,0H22
			c1.8,0,3.2,1.4,3.2,3.2l0,0v24.1C25.3,29.1,23.9,30.6,22.1,30.6L22.1,30.6z"/>
		<g id="Group_188" transform="translate(4.915 5.514)">
			<path id="Path_434" class="st5" d="M14.9,1.4h-6c-0.4,0-0.7-0.3-0.7-0.7l0,0C8.2,0.3,8.5,0,8.9,0h6c0.4,0,0.7,0.3,0.7,0.7l0,0
				C15.6,1.1,15.3,1.4,14.9,1.4L14.9,1.4z"/>
			<path id="Path_435" class="st5" d="M14.9,5H0.7C0.3,5,0,4.7,0,4.3l0,0c0-0.4,0.3-0.7,0.7-0.7h14.1c0.4,0,0.7,0.3,0.7,0.7l0,0
				C15.6,4.7,15.3,5,14.9,5L14.9,5z"/>
			<path id="Path_436" class="st5" d="M14.9,8.8H0.7C0.3,8.7,0,8.4,0,8l0,0c0-0.4,0.3-0.7,0.7-0.7h14.1c0.4,0,0.7,0.3,0.7,0.7l0,0
				C15.6,8.4,15.3,8.7,14.9,8.8z"/>
			<path id="Path_437" class="st5" d="M14.9,12.3H0.7C0.3,12.3,0,12,0,11.6l0,0c0-0.4,0.3-0.7,0.7-0.7h14.1c0.4,0,0.7,0.3,0.7,0.7
				l0,0C15.6,12,15.3,12.3,14.9,12.3z"/>
			<path id="Path_438" class="st5" d="M14.9,15.9H0.7c-0.4,0-0.7-0.3-0.7-0.7l0,0c0-0.4,0.3-0.7,0.7-0.7h14.1c0.4,0,0.7,0.3,0.7,0.7
				l0,0C15.6,15.6,15.3,15.9,14.9,15.9z"/>
			<path id="Path_439" class="st5" d="M6.4,19.5H0.7c-0.4,0-0.7-0.3-0.7-0.7l0,0c0-0.4,0.3-0.7,0.7-0.7h5.6c0.4,0,0.7,0.3,0.7,0.7
				l0,0C7.1,19.2,6.8,19.5,6.4,19.5L6.4,19.5z"/>
		</g>
	</g>
</g>
<g id="Group_195" transform="translate(54.304 170.124)">
	<g id="Group_192" transform="translate(8.871)">
		<path id="Path_440" class="st4" d="M22.1,30.6H3.2c-1.8,0-3.2-1.4-3.2-3.2l0,0V3.2C0,1.5,1.4,0,3.2,0l0,0H22
			c1.8,0,3.2,1.4,3.2,3.2l0,0v24.1C25.3,29.1,23.9,30.6,22.1,30.6L22.1,30.6z"/>
		<g id="Group_191" transform="translate(4.795 5.514)">
			<path id="Path_441" class="st5" d="M14.9,1.4h-6c-0.4,0-0.7-0.3-0.7-0.7l0,0C8.2,0.3,8.5,0,8.9,0h6c0.4,0,0.7,0.3,0.7,0.7l0,0
				C15.7,1.2,15.3,1.4,14.9,1.4z"/>
			<path id="Path_442" class="st5" d="M14.9,5H0.7C0.3,5,0,4.7,0,4.3l0,0c0-0.4,0.3-0.7,0.7-0.7h14.1c0.4,0,0.7,0.3,0.7,0.7l0,0
				C15.7,4.8,15.3,5,14.9,5z"/>
			<path id="Path_443" class="st5" d="M14.9,8.6H0.7C0.3,8.6,0,8.3,0,7.9l0,0c0-0.4,0.3-0.7,0.7-0.7h14.1c0.4,0,0.7,0.3,0.7,0.7l0,0
				C15.7,8.4,15.3,8.6,14.9,8.6z"/>
			<path id="Path_444" class="st5" d="M14.9,12.2H0.7c-0.4,0-0.7-0.3-0.7-0.7l0,0c0-0.4,0.3-0.7,0.7-0.7h14.1c0.4,0,0.7,0.3,0.7,0.7
				l0,0C15.7,12,15.3,12.2,14.9,12.2z"/>
			<path id="Path_445" class="st5" d="M14.9,15.9H0.7c-0.4,0-0.7-0.3-0.7-0.7l0,0c0-0.4,0.3-0.7,0.7-0.7h14.1c0.4,0,0.7,0.3,0.7,0.7
				l0,0C15.7,15.6,15.3,15.9,14.9,15.9z"/>
			<path id="Path_446" class="st5" d="M6.5,19.5H0.8c-0.4,0-0.7-0.3-0.7-0.7l0,0c0-0.4,0.3-0.7,0.7-0.7h5.6c0.4,0,0.7,0.3,0.7,0.7
				l0,0C7.2,19.2,6.9,19.5,6.5,19.5z"/>
		</g>
	</g>
	<g id="Group_194" transform="translate(0 9.59)">
		<path id="Path_447" class="st4" d="M22.1,30.6H3.2c-1.8,0-3.2-1.4-3.2-3.2l0,0V3.2C0,1.5,1.4,0,3.2,0l0,0H22
			c1.8,0,3.2,1.4,3.2,3.2l0,0v24.1C25.3,29.1,23.9,30.6,22.1,30.6L22.1,30.6z"/>
		<g id="Group_193" transform="translate(4.915 5.634)">
			<path id="Path_448" class="st5" d="M14.9,1.4h-6c-0.4,0-0.7-0.3-0.7-0.7l0,0C8.2,0.3,8.5,0,8.9,0h6c0.4,0,0.7,0.3,0.7,0.7l0,0
				C15.6,1.1,15.3,1.4,14.9,1.4z"/>
			<path id="Path_449" class="st5" d="M14.9,5H0.7C0.3,5,0,4.7,0,4.3l0,0c0-0.4,0.3-0.7,0.7-0.7h14.1c0.4,0,0.7,0.3,0.7,0.7l0,0
				C15.6,4.7,15.3,5,14.9,5z"/>
			<path id="Path_450" class="st5" d="M14.9,8.6H0.7C0.3,8.6,0,8.3,0,7.9l0,0c0-0.4,0.3-0.7,0.7-0.7h14.1c0.4,0,0.7,0.3,0.7,0.7l0,0
				C15.6,8.3,15.3,8.6,14.9,8.6z"/>
			<path id="Path_451" class="st5" d="M14.9,12.2H0.7c-0.4,0-0.7-0.3-0.7-0.7l0,0c0-0.4,0.3-0.7,0.7-0.7h14.1c0.4,0,0.7,0.3,0.7,0.7
				l0,0C15.6,11.9,15.3,12.2,14.9,12.2z"/>
			<path id="Path_452" class="st5" d="M14.9,15.8H0.7c-0.4,0-0.7-0.3-0.7-0.7l0,0c0-0.4,0.3-0.7,0.7-0.7h14.1c0.4,0,0.7,0.3,0.7,0.7
				l0,0C15.6,15.5,15.3,15.8,14.9,15.8z"/>
			<path id="Path_453" class="st5" d="M6.4,19.4H0.7c-0.4,0-0.7-0.3-0.7-0.7l0,0C0,18.3,0.3,18,0.7,18h5.6C6.7,18,7,18.3,7,18.7l0,0
				C7,19.1,6.7,19.4,6.4,19.4z"/>
		</g>
	</g>
</g>
<line id="Line_29" class="st6" x1="79.6" y1="201.3" x2="246.8" y2="252.5"/>
<line id="Line_30" class="st6" x1="188.6" y1="154.7" x2="260.2" y2="232.8"/>
<line id="Line_31" class="st6" x1="235.7" y1="46.8" x2="286" y2="217"/>
<line id="Line_32" class="st6" x1="337.6" y1="41.7" x2="314.6" y2="215.4"/>
<line id="Line_33" class="st6" x1="338.6" y1="224.8" x2="392.5" y2="135.1"/>
<line id="Line_34" class="st6" x1="357.2" y1="243.5" x2="486.2" y2="130.2"/>
</svg>
