<svg xmlns="http://www.w3.org/2000/svg" viewBox="2977.985 10863.5 28.265 22.722">
  <defs>
    <style>
      .cls-1 {
        fill: #4a4a4a;
      }
    </style>
  </defs>
  <g id="Twitter" transform="translate(2109 5839)">
    <path id="Path_46" data-name="Path 46" class="cls-1" d="M27.8,2.619a11.691,11.691,0,0,1-1.369.492A6.046,6.046,0,0,0,27.663.985.432.432,0,0,0,27.515.5.454.454,0,0,0,27,.47,10.59,10.59,0,0,1,23.819,1.7,6.185,6.185,0,0,0,19.565,0,6.017,6.017,0,0,0,13.5,5.955a5.847,5.847,0,0,0,.046.772A15.651,15.651,0,0,1,2.867,1.175a.464.464,0,0,0-.388-.168.425.425,0,0,0-.354.224,5.78,5.78,0,0,0-.833,3A5.886,5.886,0,0,0,2.741,8.093a5.219,5.219,0,0,1-.81-.358.45.45,0,0,0-.445,0,.446.446,0,0,0-.228.381v.078A5.963,5.963,0,0,0,4.236,13.32a3.362,3.362,0,0,1-.468-.067.43.43,0,0,0-.422.146.465.465,0,0,0-.091.437,6.021,6.021,0,0,0,4.448,4,10.945,10.945,0,0,1-5.737,1.612,9.838,9.838,0,0,1-1.289-.078.462.462,0,0,0-.479.291.438.438,0,0,0,.182.526,16.49,16.49,0,0,0,8.84,2.541,15.891,15.891,0,0,0,12.2-5.261A16.468,16.468,0,0,0,25.656,6.593c0-.168,0-.325-.011-.492A11.7,11.7,0,0,0,28.359,3.28a.432.432,0,0,0-.034-.537.462.462,0,0,0-.525-.123Zm0,0" transform="translate(868.813 5024.5)"/>
  </g>
</svg>
