<?xml version="1.0" encoding="utf-8"?>
<!-- Generator: Adobe Illustrator 21.1.0, SVG Export Plug-In . SVG Version: 6.00 Build 0)  -->
<svg version="1.1" id="Layer_1" xmlns="http://www.w3.org/2000/svg" xmlns:xlink="http://www.w3.org/1999/xlink" x="0px" y="0px"
	 viewBox="0 0 488 612" style="enable-background:new 0 0 488 612;" xml:space="preserve">
<style type="text/css">
	.st0{fill:#000D29;}
	.st1{fill-rule:evenodd;clip-rule:evenodd;fill:#000D29;}
</style>
<g>
	<polygon class="st0" points="199.4,302.6 204.1,305 203.9,310.3 165.4,332.6 160.9,324.9 199.4,302.6 	"/>
	<polygon class="st0" points="35.1,397.3 39.5,405 80.3,381.5 75.9,373.8 35.1,397.3 	"/>
	<polygon class="st0" points="99.2,360.7 103.7,368.4 142.1,346.1 137.7,338.4 99.2,360.7 	"/>
	<polygon class="st0" points="288.6,302.6 283.9,305 284.1,310.3 322.6,332.6 327.1,324.9 288.6,302.6 	"/>
	<polygon class="st0" points="452.9,397.3 448.5,405 407.7,381.5 412.1,373.8 452.9,397.3 	"/>
	<polygon class="st0" points="388.8,360.7 384.3,368.4 345.8,346.1 350.3,338.4 388.8,360.7 	"/>
	<polygon class="st1" points="247.9,162.7 239,162.7 239,118.2 247.9,118.2 247.9,162.7 	"/>
	<polygon class="st1" points="247.9,233.9 243.5,235.7 239,233.9 239,189.4 247.9,189.4 247.9,233.9 	"/>
	<polygon class="st1" points="239,44.4 247.9,44.4 247.9,91.5 239,91.5 239,44.4 	"/>
	<path class="st0" d="M253.9,7.2l223.3,128.9l7.5,4.3l2.4,1.4v2.7v8.6v128.9V411v8.6v2.7l-2.4,1.4l-7.5,4.3l-111.7,64.5l-57.5,33.2
		l-7.2,4.1v-8.3v-34.4v-2.8l2.4-1.4l42.5-24.5l79.7-46v0l22.1-12.7l0-22.1v-95.5v-94.8L263.7,293.4v268.6v8.6v25.8v2.7l-2.4,1.4
		l-7.5,4.3l-7.5,4.3l-2.4,1.4l-2.4-1.4l-7.5-4.3l-7.5-4.3l-2.4-1.4v-2.7v-25.8v-8.6V293.4L40.4,187.2v94.8V383v11.5l0,0l0,5.3
		l14.3,8.2l87.4,50.5l42.5,24.5l2.4,1.4v2.7v34.4v8.3l-7.2-4.1l-57.5-33.2h0L10.8,428l-7.5-4.3L1,422.3v-2.7V411V282.1V153.2v-8.6
		v-2.7l2.4-1.4l7.5-4.3c74.4-43,148.9-86,223.3-128.9h0l7.5-4.3l2.4-1.4l2.4,1.4L253.9,7.2L253.9,7.2L253.9,7.2z M60,153.2
		l184,106.2l184-106.2L259.4,55.9l-15.4-9l-30.4,17.6l-2.1,1.2C161,94.8,110.5,124,60,153.2L60,153.2z"/>
</g>
</svg>
