<svg xmlns="http://www.w3.org/2000/svg" viewBox="2407.474 10793.436 185.352 106.729">
  <defs>
    <style>
      .cls-1, .cls-2 {
        fill: #8e8e8e;
      }

      .cls-2 {
        fill-rule: evenodd;
      }
    </style>
  </defs>
  <g id="Group_158" data-name="Group 158" transform="translate(2407.474 10793.535)">
    <g id="Group_34" data-name="Group 34" transform="translate(63.732 -0.1)">
      <path id="Path_49" data-name="Path 49" class="cls-1" d="M643.387,276.8l.557.285-.026.635-4.587,2.657-.531-.92Z" transform="translate(-619.75 -240.917)"/>
      <path id="Path_50" data-name="Path 50" class="cls-1" d="M523.1,345.086l.531.92,4.86-2.786-.531-.92Z" transform="translate(-519.044 -297.929)"/>
      <path id="Path_51" data-name="Path 51" class="cls-1" d="M582.1,312.357l.531.92,4.587-2.67-.544-.907Z" transform="translate(-570.398 -269.553)"/>
      <path id="Path_52" data-name="Path 52" class="cls-1" d="M752.444,276.8l-.544.285.013.635,4.6,2.657.531-.92Z" transform="translate(-718.194 -240.917)"/>
      <path id="Path_53" data-name="Path 53" class="cls-1" d="M871.078,345.086l-.518.92-4.86-2.786.531-.92Z" transform="translate(-817.247 -297.929)"/>
      <path id="Path_54" data-name="Path 54" class="cls-1" d="M813.919,312.357l-.531.92-4.587-2.67.531-.907Z" transform="translate(-767.72 -269.553)"/>
      <path id="Path_55" data-name="Path 55" class="cls-2" d="M711.663,112.6H710.6v-5.3h1.063Z" transform="translate(-682.246 -93.382)"/>
      <path id="Path_56" data-name="Path 56" class="cls-2" d="M711.663,178.013l-.531.207-.531-.207V172.7h1.063Z" transform="translate(-682.246 -150.307)"/>
      <path id="Path_57" data-name="Path 57" class="cls-2" d="M710.6,39.5h1.063v5.6H710.6Z" transform="translate(-682.246 -34.368)"/>
      <path id="Path_58" data-name="Path 58" class="cls-1" d="M521.929.587l26.6,15.356.894.518.285.168V50.038l-.285.168-.894.518-13.3,7.685L528.4,62.362l-.855.492V57.438l.285-.168,5.067-2.929,9.5-5.482h0l2.631-1.516V22.034l-21.9,12.648V71.1l-.285.168-.894.518-.894.518-.285.168-.285-.168-.894-.518-.894-.518L518.4,71.1V34.682L496.5,22.034v24.7h0v.622l1.711.985,10.406,6.013,5.067,2.929.285.168v5.417l-.855-.492-6.842-3.952h0l-13.3-7.685-.894-.518-.285-.168V16.63l.285-.168.894-.518q13.3-7.678,26.6-15.356h0l.894-.518.285-.168.285.168.881.518ZM498.837,17.978,520.75,30.626l21.914-12.648L522.59,6.392,520.763,5.33l-3.616,2.086-.246.143q-9.058,5.209-18.065,10.419Z" transform="translate(-491.8 0.1)"/>
    </g>
    <g id="Group_35" data-name="Group 35" transform="translate(0 87.953)">
      <path id="Path_59" data-name="Path 59" class="cls-1" d="M985.567,695.232a8.863,8.863,0,0,1-6.505,2.786,9.025,9.025,0,0,1-6.635-2.708,9.754,9.754,0,0,1-2.527-6.894,9.138,9.138,0,0,1,2.112-5.922,8.725,8.725,0,0,1,5.4-3.019h.013a10.12,10.12,0,0,1,1.516-.091,13.427,13.427,0,0,1,1.451.091h.013a9.22,9.22,0,0,1,5.559,3.058,8.949,8.949,0,0,1,2.164,5.883,9.8,9.8,0,0,1-2.566,6.816Zm-5.521-13.218a8.3,8.3,0,0,0-2.268,0h0a5.869,5.869,0,0,0-3.732,2.112,6.955,6.955,0,0,0-1.387,4.367,7.21,7.21,0,0,0,1.775,4.989,6.19,6.19,0,0,0,4.613,1.931,6.11,6.11,0,0,0,4.562-1.931,7.216,7.216,0,0,0,1.749-4.976,6.691,6.691,0,0,0-1.49-4.3,6.1,6.1,0,0,0-3.823-2.19Z" transform="translate(-844.211 -679.381)"/>
      <path id="Path_60" data-name="Path 60" class="cls-1" d="M1301.1,682.478a1.241,1.241,0,0,1,1.218-.778H1316.4a1.3,1.3,0,0,1,1.257.778h0a1.254,1.254,0,0,1,.1.531,1.49,1.49,0,0,1-.1.531h0a1.3,1.3,0,0,1-1.257.777h-5.689c0,2.864.013,4.937.013,7.011,0,2.8.013,5.754.013,7.374a1.3,1.3,0,0,1-.4.972,1.445,1.445,0,0,1-1,.4,1.363,1.363,0,0,1-.972-.4,1.382,1.382,0,0,1-.376-.972V684.318h-5.663a1.259,1.259,0,0,1-1.218-.777h0a1.477,1.477,0,0,1-.1-.518,1.505,1.505,0,0,1,.1-.544Z" transform="translate(-1132.404 -681.399)"/>
      <path id="Path_61" data-name="Path 61" class="cls-1" d="M1168.529,699.418l-5.378-5.832h-4.743v4.9a1.218,1.218,0,0,1-.829,1.205h0a1.48,1.48,0,0,1-.531.091h0a1.828,1.828,0,0,1-.531-.091h0a1.2,1.2,0,0,1-.816-1.179v-15.59a1.319,1.319,0,0,1,.389-.959h0a1.4,1.4,0,0,1,.985-.363h6.441a8.284,8.284,0,0,1,5.365,1.659,5.771,5.771,0,0,1,2.1,4.549,5.463,5.463,0,0,1-1.335,3.8,6.124,6.124,0,0,1-3.162,1.736l3.952,4.264h0a1.264,1.264,0,0,1,.065,1.892,1.555,1.555,0,0,1-.467.285,1.4,1.4,0,0,1-1.5-.363Zm-4.989-15.253h-5.119v6.972h5.4a5.406,5.406,0,0,0,3.382-1.024,2.775,2.775,0,0,0,1.011-2.2h0v-.1h0a3.359,3.359,0,0,0-1.3-2.631,5.444,5.444,0,0,0-3.382-1.011Z" transform="translate(-1005.934 -681.312)"/>
      <path id="Path_62" data-name="Path 62" class="cls-1" d="M834.818,692.874a8,8,0,0,1-5.326,1.672H825v4a1.248,1.248,0,0,1-.817,1.205h0a1.412,1.412,0,0,1-1.062,0,1.214,1.214,0,0,1-.817-1.179V682.922a1.277,1.277,0,0,1,.4-.946h0a1.418,1.418,0,0,1,.972-.376h5.9a7.525,7.525,0,0,1,5.2,1.788,6.457,6.457,0,0,1,2.073,4.821,5.966,5.966,0,0,1-2.021,4.665Zm-5.223-8.76H825v7.931h4.73a4.974,4.974,0,0,0,3.434-1.218,3.437,3.437,0,0,0,1.024-2.488h0v-.1h0a4.093,4.093,0,0,0-1.348-2.968,4.728,4.728,0,0,0-3.24-1.153Z" transform="translate(-715.739 -681.312)"/>
      <path id="Path_63" data-name="Path 63" class="cls-1" d="M485.867,695.232a8.884,8.884,0,0,1-6.505,2.786,9.025,9.025,0,0,1-6.635-2.708,9.754,9.754,0,0,1-2.527-6.894,9.138,9.138,0,0,1,2.112-5.922,8.725,8.725,0,0,1,5.4-3.019h.013a10.121,10.121,0,0,1,1.516-.091,13.431,13.431,0,0,1,1.451.091h.013a9.22,9.22,0,0,1,5.559,3.058,8.949,8.949,0,0,1,2.164,5.883,9.8,9.8,0,0,1-2.566,6.816Zm-5.521-13.218a8.208,8.208,0,0,0-2.255,0h0a5.813,5.813,0,0,0-3.732,2.112,6.955,6.955,0,0,0-1.387,4.367,7.211,7.211,0,0,0,1.775,4.989,6.19,6.19,0,0,0,4.613,1.931,6.11,6.11,0,0,0,4.562-1.931,7.216,7.216,0,0,0,1.749-4.976,6.692,6.692,0,0,0-1.49-4.3,6.161,6.161,0,0,0-3.836-2.19Z" transform="translate(-409.267 -679.381)"/>
      <path id="Path_64" data-name="Path 64" class="cls-1" d="M667.483,693.673l-.194-2.864v-9.641a1.2,1.2,0,0,1,.868-1.153,1.916,1.916,0,0,1,.544-.091h0a1.6,1.6,0,0,1,.544.091,1.171,1.171,0,0,1,.842,1.153v15.59a1.463,1.463,0,0,1-.389,1.024,1.547,1.547,0,0,1-.8.441h0a1.95,1.95,0,0,1-.907-.013,1.621,1.621,0,0,1-1.011-.713l-9.421-12.622.143,2.527v9.616a1.3,1.3,0,0,1-.842,1.27h0a1.634,1.634,0,0,1-.557.1h0a1.694,1.694,0,0,1-.557-.1,1.3,1.3,0,0,1-.842-1.27V681.465a1.575,1.575,0,0,1,.35-1.05,1.433,1.433,0,0,1,.713-.466,1.506,1.506,0,0,1,.829.013,1.773,1.773,0,0,1,.972.713h0l9.719,13Z" transform="translate(-570.032 -679.83)"/>
      <path id="Path_65" data-name="Path 65" class="cls-1" d="M358.527,697.246h0a1.341,1.341,0,0,1-1.3.739H346.1a1.383,1.383,0,0,1-1.05-.376,1.4,1.4,0,0,1-.35-1V681.035a1.264,1.264,0,0,1,.829-1.231h0a1.56,1.56,0,0,1,.544-.1,1.618,1.618,0,0,1,.544.1,1.264,1.264,0,0,1,.829,1.231v14.436h9.784a1.355,1.355,0,0,1,1.3.739h0a1.21,1.21,0,0,1,0,1.037Z" transform="translate(-300.031 -679.659)"/>
      <path id="Path_66" data-name="Path 66" class="cls-1" d="M201.731,692.215h-9.849v5.158h10.354a1.235,1.235,0,0,1,1.179.791h0a1.363,1.363,0,0,1,.013,1.011,1.191,1.191,0,0,1-1.192.726h-11.43a1.6,1.6,0,0,1-1.14-.441h0a1.544,1.544,0,0,1-.467-1.127v-14.9a1.47,1.47,0,0,1,.479-1.1h0a1.667,1.667,0,0,1,1.14-.428h11.456a1.166,1.166,0,0,1,1.127.726h0a1.277,1.277,0,0,1,.091.492h0a1.29,1.29,0,0,1-.1.492,1.184,1.184,0,0,1-1.153.765H191.9v5.378h9.849a1.157,1.157,0,0,1,1.114.765h0a1.382,1.382,0,0,1,0,.985,1.175,1.175,0,0,1-1.127.713Z" transform="translate(-164.682 -681.574)"/>
      <path id="Path_67" data-name="Path 67" class="cls-1" d="M2.527,681.034l6.311,9.836,6.259-9.836a1.578,1.578,0,0,1,.855-.687h0a1.27,1.27,0,0,1,1.361.389h0a1.507,1.507,0,0,1,.337.985v15.641a1.276,1.276,0,0,1-.816,1.244,1.561,1.561,0,0,1-.544.1,1.619,1.619,0,0,1-.544-.1,1.276,1.276,0,0,1-.816-1.244V686.257l-4.86,7.594a1.512,1.512,0,0,1-.622.622,1.445,1.445,0,0,1-.648.156h0a1.274,1.274,0,0,1-.648-.169,1.473,1.473,0,0,1-.583-.609L2.721,686.3v11.08a1.276,1.276,0,0,1-.816,1.244,1.56,1.56,0,0,1-.544.1,1.619,1.619,0,0,1-.544-.1A1.276,1.276,0,0,1,0,697.375V681.721a1.527,1.527,0,0,1,.376-1.037,1.24,1.24,0,0,1,.609-.363h0a1.217,1.217,0,0,1,.713.026,1.41,1.41,0,0,1,.829.687Z" transform="translate(0 -680.163)"/>
    </g>
  </g>
</svg>
