<svg xmlns="http://www.w3.org/2000/svg" viewBox="2916 10861 28 28">
  <defs>
    <style>
      .cls-1 {
        fill: #4a4a4a;
      }
    </style>
  </defs>
  <g id="Github" transform="translate(2916.019 10861.037)">
    <path id="Path_46" data-name="Path 46" class="cls-1" d="M18.811,27.784a.584.584,0,0,1-.4.1.7.7,0,0,1-.891-.71V24.032c0-1.217,0-2.434-.891-3.346l1.485-.3c3.069-.71,4.653-2.738,4.851-5.983a6.341,6.341,0,0,0-1.287-4.563.314.314,0,0,1,0-.406,6.027,6.027,0,0,0-.1-3.245c-.1-.3-.2-.3-.5-.3a5.669,5.669,0,0,0-2.475.913,2.42,2.42,0,0,1-2.178.406,12.815,12.815,0,0,0-5.544.1.852.852,0,0,1-.693-.1A9.1,9.1,0,0,0,7.524,5.983c-.792-.2-.792-.1-.99.608a4.635,4.635,0,0,0,0,2.839c0,.1,0,.406-.1.507-1.98,2.332-1.287,6.692.1,8.315a6.556,6.556,0,0,0,4.059,2.231,2.406,2.406,0,0,0,.792.1,13.742,13.742,0,0,1-.693,1.825c0,.1-.2.2-.3.3A2.834,2.834,0,0,1,6.633,21.5a3.006,3.006,0,0,0-1.98-1.521h-.1c-.2.1-.5.1-.693.2a.7.7,0,0,0,.3.507,3.93,3.93,0,0,1,1.584,2.028,2.984,2.984,0,0,0,2.772,2.028,12.89,12.89,0,0,0,1.98,0v2.636c0,.507-.5.71-1.089.507a10.807,10.807,0,0,1-4.158-2.434C.792,21.5-.99,16.529.495,10.749A13.546,13.546,0,0,1,11.584.2C19.5-1.318,27.128,4.564,27.92,12.878a14.428,14.428,0,0,1-9.109,14.906Zm-7.525-7.2ZM7.623,23.221c.2.1.3.2.4.2s.1-.1.3-.2a1.649,1.649,0,0,0-.5-.2l-.2.2Zm1.188.2c0,.1.2.2.3.2s.2-.1.3-.2a2.723,2.723,0,0,0-.5-.406c0,.1-.1.3-.1.406Zm1.386-.406c-.1,0-.2.1-.3.2.1.1.1.2.2.3l.3-.3c-.1,0-.1-.2-.2-.2Zm-3.465-.406a1.4,1.4,0,0,1,.3.406,1.463,1.463,0,0,0,.2-.3l-.3-.3s-.2.1-.2.2Zm0,0" transform="translate(0 0)"/>
  </g>
</svg>
