<svg xmlns="http://www.w3.org/2000/svg" viewBox="2888 4980 125 125">
  <defs>
    <style>
      .cls-1 {
        fill: #4a4a4a;
      }

      .cls-2, .cls-4 {
        fill: none;
      }

      .cls-2 {
        stroke: #171717;
        stroke-width: 2px;
      }

      .cls-3 {
        stroke: none;
      }
    </style>
  </defs>
  <g id="Icon" transform="translate(2928 5013.677)">
    <path id="Path_81" data-name="Path 81" class="cls-1" d="M39.854,41.677,30.62,37.06a2.723,2.723,0,0,1-1.458-2.309V31.47a6.74,6.74,0,0,0,.729-.972,24.486,24.486,0,0,0,2.916-5.589,3.892,3.892,0,0,0,2.309-3.524V17.5a3.921,3.921,0,0,0-.972-2.552V9.721A8.967,8.967,0,0,0,32.078,3.4C30.012,1.094,26.732,0,22.357,0s-7.655,1.094-9.6,3.4a9.1,9.1,0,0,0-2.066,6.318v5.225A3.921,3.921,0,0,0,9.721,17.5v3.888a3.686,3.686,0,0,0,1.458,3.038,20.584,20.584,0,0,0,3.4,7.047V34.63a2.605,2.605,0,0,1-1.337,2.309L4.617,41.677A8.524,8.524,0,0,0,0,49.332v3.159c0,4.617,14.581,5.832,22.357,5.832s22.357-1.215,22.357-5.832V49.575a8.626,8.626,0,0,0-4.86-7.9ZM42.77,52.491c0,1.337-7.169,3.888-20.413,3.888S1.944,53.828,1.944,52.491V49.332a6.706,6.706,0,0,1,3.524-5.954l8.627-4.739A4.544,4.544,0,0,0,16.4,34.63V30.741L16.16,30.5a17.749,17.749,0,0,1-3.281-6.926l-.122-.365-.365-.243a1.771,1.771,0,0,1-.851-1.58V17.5a2.242,2.242,0,0,1,.608-1.458l.365-.243V9.6a6.571,6.571,0,0,1,1.58-4.86c1.58-1.823,4.374-2.795,8.141-2.795s6.561.972,8.141,2.795a6.571,6.571,0,0,1,1.58,4.86v6.2l.365.243a2.012,2.012,0,0,1,.608,1.458v3.888a1.975,1.975,0,0,1-1.337,1.823l-.486.122-.122.486A18.558,18.558,0,0,1,28.19,29.4c-.243.365-.608.729-.851,1.094l-.243.243v4.01a4.408,4.408,0,0,0,2.552,4.01l9.235,4.617a6.887,6.887,0,0,1,3.767,6.075v3.038Zm0,0"/>
    <g id="Base" class="cls-2" transform="translate(-40 -33.677)">
      <circle class="cls-3" cx="62.5" cy="62.5" r="62.5"/>
      <circle class="cls-4" cx="62.5" cy="62.5" r="61.5"/>
    </g>
  </g>
</svg>
