<svg xmlns="http://www.w3.org/2000/svg" viewBox="3100 10861.346 24.937 24.877">
  <defs>
    <style>
      .cls-1 {
        fill: #4a4a4a;
      }
    </style>
  </defs>
  <g id="Linkedin" transform="translate(3100 10861.346)">
    <path id="Path_46" data-name="Path 46" class="cls-1" d="M9.31,79.5H4.3a.4.4,0,0,0-.4.4V95.98a.4.4,0,0,0,.4.4H9.31a.4.4,0,0,0,.4-.4V79.9a.4.4,0,0,0-.4-.4Zm0,0" transform="translate(-3.508 -71.506)"/>
    <path id="Path_47" data-name="Path 47" class="cls-1" d="M3.308,0a3.3,3.3,0,1,0,3.3,3.3A3.3,3.3,0,0,0,3.308,0Zm0,0"/>
    <path id="Path_48" data-name="Path 48" class="cls-1" d="M94.9,75.5a5.847,5.847,0,0,0-4.394,1.85V76.3a.4.4,0,0,0-.4-.4H85.3a.4.4,0,0,0-.4.4V92.383a.4.4,0,0,0,.4.4h5a.4.4,0,0,0,.4-.4V84.429c0-2.685.724-3.73,2.594-3.73,2.031,0,2.2,1.679,2.2,3.861v7.823a.4.4,0,0,0,.4.4h5a.4.4,0,0,0,.4-.4V83.564c0-3.982-.764-8.064-6.4-8.064Zm0,0" transform="translate(-76.363 -67.908)"/>
  </g>
</svg>
