<svg xmlns="http://www.w3.org/2000/svg" viewBox="2365.479 1104.573 190.229 45.975">
  <defs>
    <style>
      .cls-1 {
        fill-rule: evenodd;
      }
    </style>
  </defs>
  <g id="Logo" transform="translate(2365.479 1104.673)">
    <g id="Icon" transform="translate(0 -0.1)">
      <path id="Path_1" data-name="Path 1" d="M149.914,276.8l.345.181-.008.4-2.914,1.683-.337-.583Z" transform="translate(-134.932 -254.067)"/>
      <path id="Path_2" data-name="Path 2" d="M31.4,344.065l.328.583,3.079-1.765-.337-.583Z" transform="translate(-28.822 -314.19)"/>
      <path id="Path_3" data-name="Path 3" d="M90.3,311.383l.337.583,2.906-1.691-.337-.575Z" transform="translate(-82.887 -284.266)"/>
      <path id="Path_4" data-name="Path 4" d="M260.453,276.8l-.353.181.016.4,2.906,1.683.337-.583Z" transform="translate(-238.746 -254.067)"/>
      <path id="Path_5" data-name="Path 5" d="M377.315,344.065l-.337.583-3.079-1.765.337-.583Z" transform="translate(-343.204 -314.19)"/>
      <path id="Path_6" data-name="Path 6" d="M320.243,311.383l-.337.583L317,310.275l.345-.575Z" transform="translate(-290.975 -284.266)"/>
      <path id="Path_7" data-name="Path 7" class="cls-1" d="M219.473,110.658H218.8V107.3h.673Z" transform="translate(-200.837 -98.483)"/>
      <path id="Path_8" data-name="Path 8" class="cls-1" d="M219.473,176.066l-.328.131-.345-.131V172.7h.673Z" transform="translate(-200.837 -158.514)"/>
      <path id="Path_9" data-name="Path 9" class="cls-1" d="M218.8,39.5h.673v3.547H218.8Z" transform="translate(-200.837 -36.249)"/>
      <path id="Path_10" data-name="Path 10" d="M19.088.335l16.855,9.729.566.328.181.107V31.664l-.181.107-.566.328-8.423,4.868-4.335,2.5-.542.312V36.351l.181-.107,3.2-1.855,6.018-3.473h0l1.667-.961V13.922L19.835,21.935V45l-.181.107-.566.328-.566.328-.181.107-.181-.107-.566-.328-.566-.328L16.846,45V21.935L2.972,13.922V29.57h0v.394l1.084.624L10.648,34.4l3.21,1.855.181.107v3.432l-.542-.312-4.335-2.5h0L.747,32.1.181,31.77,0,31.672V10.5l.181-.107.566-.328Q9.17,5.2,17.6.335h0l.566-.328L18.349-.1l.181.107.558.328ZM4.458,11.353l13.883,8.013,13.883-8.013L19.506,4.013,18.349,3.34,16.058,4.662l-.156.09q-5.726,3.3-11.444,6.6Z" transform="translate(0 0.1)"/>
    </g>
    <g id="Melonport" transform="translate(46.886 13.988)">
      <path id="Path_11" data-name="Path 11" d="M1767.026,183.749a6.889,6.889,0,0,1-5.033,2.159,7.005,7.005,0,0,1-5.131-2.094,7.534,7.534,0,0,1-1.962-5.328,7.085,7.085,0,0,1,1.634-4.581,6.748,6.748,0,0,1,4.179-2.332h.008a8.167,8.167,0,0,1,1.166-.074,10.216,10.216,0,0,1,1.125.074h.016a7.138,7.138,0,0,1,4.3,2.364,6.923,6.923,0,0,1,1.675,4.556,7.538,7.538,0,0,1-1.978,5.254Zm-4.269-10.221a6.238,6.238,0,0,0-1.749,0h0a4.491,4.491,0,0,0-2.882,1.634,5.375,5.375,0,0,0-1.075,3.382,5.571,5.571,0,0,0,1.371,3.859,4.788,4.788,0,0,0,3.571,1.486,4.708,4.708,0,0,0,3.53-1.494,5.559,5.559,0,0,0,1.354-3.85,5.2,5.2,0,0,0-1.149-3.325,4.78,4.78,0,0,0-2.972-1.691Z" transform="translate(-1657.713 -171.5)"/>
      <path id="Path_12" data-name="Path 12" d="M2159.36,174.708a.979.979,0,0,1,.944-.608h10.886a.992.992,0,0,1,.969.6h0a1.062,1.062,0,0,1,0,.821h0a1,1,0,0,1-.969.6h-4.4c0,2.217.008,3.818.008,5.418.009,2.159.009,4.45.009,5.706a1.011,1.011,0,0,1-.3.747,1.12,1.12,0,0,1-.771.312,1.091,1.091,0,0,1-.756-.312,1.047,1.047,0,0,1-.287-.747V176.128h-4.376a.967.967,0,0,1-.944-.608h0a1.094,1.094,0,0,1-.009-.813Z" transform="translate(-2028.899 -173.887)"/>
      <path id="Path_13" data-name="Path 13" d="M1991.917,187.976l-4.154-4.507h-3.669v3.793a.96.96,0,0,1-.641.936h0a1.17,1.17,0,0,1-.41.074h0a1.169,1.169,0,0,1-.41-.074h0a.942.942,0,0,1-.632-.92v-12.06a1,1,0,0,1,.3-.739h0a1.071,1.071,0,0,1,.755-.279h4.975a6.407,6.407,0,0,1,4.146,1.281,4.449,4.449,0,0,1,1.617,3.514,4.171,4.171,0,0,1-1.034,2.931,4.675,4.675,0,0,1-2.447,1.338l3.054,3.3h0a1.008,1.008,0,0,1,.3,1.1,1.06,1.06,0,0,1-.238.361,1.024,1.024,0,0,1-.361.222,1.038,1.038,0,0,1-1.149-.271Zm-3.867-11.8h-3.957v5.394h4.179a4.242,4.242,0,0,0,2.619-.788,2.138,2.138,0,0,0,.78-1.7h0v-.074h0a2.574,2.574,0,0,0-1.01-2.036,4.074,4.074,0,0,0-2.61-.8Z" transform="translate(-1866.168 -173.978)"/>
      <path id="Path_14" data-name="Path 14" d="M1584.571,182.911a6.2,6.2,0,0,1-4.113,1.289h-3.473v3.1a.946.946,0,0,1-.632.928h0a1.177,1.177,0,0,1-.821,0,.932.932,0,0,1-.632-.911V175.218a1,1,0,0,1,.312-.731h0a1.062,1.062,0,0,1,.747-.287h4.557a5.818,5.818,0,0,1,4.015,1.387,4.993,4.993,0,0,1,1.609,3.735,4.584,4.584,0,0,1-1.568,3.588Zm-4.031-6.781h-3.563v6.133h3.653a3.839,3.839,0,0,0,2.652-.944,2.65,2.65,0,0,0,.8-1.921h0v-.082h0a3.144,3.144,0,0,0-1.043-2.291,3.6,3.6,0,0,0-2.5-.895Z" transform="translate(-1492.49 -173.978)"/>
      <path id="Path_15" data-name="Path 15" d="M1157.026,183.749a6.889,6.889,0,0,1-5.033,2.159,7.006,7.006,0,0,1-5.131-2.094,7.535,7.535,0,0,1-1.962-5.328,7.085,7.085,0,0,1,1.634-4.581,6.748,6.748,0,0,1,4.179-2.332h.008a8.163,8.163,0,0,1,1.166-.074,10.218,10.218,0,0,1,1.125.074h.016a7.138,7.138,0,0,1,4.3,2.364,6.923,6.923,0,0,1,1.675,4.556,7.575,7.575,0,0,1-1.978,5.254Zm-4.277-10.221a6.239,6.239,0,0,0-1.749,0h0a4.49,4.49,0,0,0-2.882,1.634,5.376,5.376,0,0,0-1.076,3.382,5.57,5.57,0,0,0,1.371,3.859,4.787,4.787,0,0,0,3.571,1.486,4.707,4.707,0,0,0,3.53-1.494,5.558,5.558,0,0,0,1.354-3.85,5.2,5.2,0,0,0-1.149-3.325,4.758,4.758,0,0,0-2.972-1.691Z" transform="translate(-1097.792 -171.5)"/>
      <path id="Path_16" data-name="Path 16" d="M1380.32,182.86l-.148-2.217v-7.454a.93.93,0,0,1,.673-.895,1.439,1.439,0,0,1,.419-.066h0a1.484,1.484,0,0,1,.419.066.9.9,0,0,1,.657.895v12.06a1.11,1.11,0,0,1-.3.8,1.267,1.267,0,0,1-.624.345h0a1.539,1.539,0,0,1-.7-.008,1.271,1.271,0,0,1-.78-.55l-7.29-9.761.115,1.954v7.43a1.013,1.013,0,0,1-.657.985h0a1.31,1.31,0,0,1-.427.082h0a1.071,1.071,0,0,1-.427-.082,1.01,1.01,0,0,1-.648-.985V173.427a1.257,1.257,0,0,1,.271-.813,1.05,1.05,0,0,1,.55-.353,1.243,1.243,0,0,1,.648.008,1.379,1.379,0,0,1,.747.55h0l7.5,10.041Z" transform="translate(-1304.963 -172.163)"/>
      <path id="Path_17" data-name="Path 17" d="M1002.4,185.463h0a1.041,1.041,0,0,1-1,.575h-8.612a1.077,1.077,0,0,1-.813-.287,1.052,1.052,0,0,1-.271-.78V172.918a.956.956,0,0,1,.64-.944h0a1.223,1.223,0,0,1,.837,0,.971.971,0,0,1,.64.944v11.165h7.569a1.049,1.049,0,0,1,1,.575h0a1.018,1.018,0,0,1,.09.4.883.883,0,0,1-.082.4Z" transform="translate(-957.17 -171.867)"/>
      <path id="Path_18" data-name="Path 18" d="M811.688,182.48h-7.61v3.99h8.013a.957.957,0,0,1,.911.608h0a1.034,1.034,0,0,1,.008.788.924.924,0,0,1-.92.558h-8.842a1.285,1.285,0,0,1-.887-.337h0a1.2,1.2,0,0,1-.361-.87V175.682a1.155,1.155,0,0,1,.37-.854h0a1.259,1.259,0,0,1,.878-.328h8.867a.884.884,0,0,1,.87.566h0a1,1,0,0,1,.074.378h0a1.04,1.04,0,0,1-.074.386.922.922,0,0,1-.887.591h-8.013v4.154h7.6a.89.89,0,0,1,.862.583h0a.968.968,0,0,1,.074.378,1.138,1.138,0,0,1-.066.378.9.9,0,0,1-.87.566Z" transform="translate(-783.044 -174.254)"/>
      <path id="Path_19" data-name="Path 19" d="M573.046,173.048l4.885,7.6,4.844-7.61a1.237,1.237,0,0,1,.665-.534h0a1.023,1.023,0,0,1,.567-.008.917.917,0,0,1,.476.312h0a1.19,1.19,0,0,1,.263.764v12.1a.982.982,0,0,1-.632.961,1.109,1.109,0,0,1-.837,0,.982.982,0,0,1-.632-.961V177.1l-3.752,5.87a1.171,1.171,0,0,1-.484.476,1.076,1.076,0,0,1-.5.123h0a.993.993,0,0,1-.5-.131,1.084,1.084,0,0,1-.452-.468l-3.752-5.854v8.571a.982.982,0,0,1-.632.961,1.109,1.109,0,0,1-.837,0,.982.982,0,0,1-.632-.961v-12.1a1.147,1.147,0,0,1,.3-.8.944.944,0,0,1,.476-.279h0a.968.968,0,0,1,.55.016,1.162,1.162,0,0,1,.624.534Z" transform="translate(-571.1 -172.383)"/>
    </g>
  </g>
</svg>
