<svg xmlns="http://www.w3.org/2000/svg" viewBox="2867 5267 167 167">
  <defs>
    <style>
      .cls-1, .cls-3, .cls-6 {
        fill: none;
      }

      .cls-1 {
        stroke: #ededed;
      }

      .cls-2 {
        fill: #fff;
        stroke: #171717;
        stroke-width: 2px;
      }

      .cls-3 {
        stroke: #e8e8e8;
      }

      .cls-4 {
        fill: #4a4a4a;
      }

      .cls-5 {
        stroke: none;
      }
    </style>
  </defs>
  <g id="Icon" transform="translate(2925 5325)">
    <g id="Base" class="cls-1" transform="translate(-58 -58)">
      <circle class="cls-5" cx="83.5" cy="83.5" r="83.5"/>
      <circle class="cls-6" cx="83.5" cy="83.5" r="83"/>
    </g>
    <g id="Base-2" data-name="Base" class="cls-2" transform="translate(-37 -37)">
      <circle class="cls-5" cx="62.5" cy="62.5" r="62.5"/>
      <circle class="cls-6" cx="62.5" cy="62.5" r="61.5"/>
    </g>
    <g id="Base-3" data-name="Base" class="cls-3" transform="translate(-19 -19)">
      <circle class="cls-5" cx="44.5" cy="44.5" r="44.5"/>
      <circle class="cls-6" cx="44.5" cy="44.5" r="44"/>
    </g>
    <path id="Path_83" data-name="Path 83" d="M49.92,22.026h-1.3V13.244a3.633,3.633,0,0,0-3.578-3.682h-.976V3.682A3.54,3.54,0,0,0,40.7,0h-.221L3.357,9.549c-.013,0-.026.013-.039.013A3.645,3.645,0,0,0,0,13.244V47.318A3.633,3.633,0,0,0,3.578,51H45.028a3.654,3.654,0,0,0,3.682-3.682V38.3h1.2a1.024,1.024,0,0,0,1.08-1.08v-14.1a1.069,1.069,0,0,0-1.067-1.093ZM40.9,2.056a1.59,1.59,0,0,1,1.08,1.626V9.536H12.047Zm5.646,45.262a1.581,1.581,0,0,1-1.522,1.626H3.578a1.582,1.582,0,0,1-1.522-1.626V13.244a1.581,1.581,0,0,1,1.522-1.626H44.924a1.582,1.582,0,0,1,1.522,1.626v8.782H35.7a8.144,8.144,0,0,0,0,16.289H46.551Zm2.277-11.072H35.7a5.959,5.959,0,0,1,0-11.917H48.827Zm0,0"/>
    <path id="Path_84" data-name="Path 84" d="M265.2,226.28a1.084,1.084,0,0,0,1.08,1.08h.976a1.08,1.08,0,0,0,0-2.16h-.963a1.035,1.035,0,0,0-1.093,1.08Zm0,0" transform="translate(-230.697 -195.901)"/>
    <g id="Logo" transform="translate(-31 -4.516)">
      <path id="Path_25" data-name="Path 25" class="cls-4" d="M29.12,32.381a2.167,2.167,0,0,0-.367-.661.707.707,0,0,0-.569-.22H28a1.071,1.071,0,0,1,.459.312,3.012,3.012,0,0,1,.349.624l2.185,5.214a.7.7,0,0,0,.11-.33,1.042,1.042,0,0,0-.11-.386Z" transform="translate(15.141 0.461)"/>
      <path id="Path_26" data-name="Path 26" class="cls-4" d="M57.1,37.75h.165c.22,0,.349-.055.4-.184a1.849,1.849,0,0,0,.073-.643V32.353a2.192,2.192,0,0,1,.092-.753c-.129.018-.22.037-.275.11a.363.363,0,0,0-.092.257,3.717,3.717,0,0,0-.018.514v4.571a.9.9,0,0,1-.073.459A.61.61,0,0,1,57.1,37.75Z" transform="translate(-8.617 0.379)"/>
      <path id="Path_27" data-name="Path 27" class="cls-4" d="M12.611,4.9a7.711,7.711,0,1,0,7.711,7.711A7.71,7.71,0,0,0,12.611,4.9ZM16.8,9.8a1.266,1.266,0,0,0-.679.129.425.425,0,0,0-.22.349,7.256,7.256,0,0,0-.037.826V15.2a1.1,1.1,0,0,0,.092.477.421.421,0,0,0,.275.22,2.8,2.8,0,0,0,.587.092v.257H13.749v-.257a1.479,1.479,0,0,0,.661-.11.419.419,0,0,0,.239-.294,4.373,4.373,0,0,0,.037-.606V10.371l-2.368,5.838h-.275L9.729,10.555v3.874a1.849,1.849,0,0,0,.257,1.028,1.329,1.329,0,0,0,.826.5v.257H8.407v-.257a1.108,1.108,0,0,0,.789-.4,1.478,1.478,0,0,0,.275-.955V10.206a1.137,1.137,0,0,0-.459-.312A1.577,1.577,0,0,0,8.425,9.8V9.545h2.166L12.7,14.612l2.075-5.067h2.038V9.8Z" transform="translate(34 22.177)"/>
      <path id="Path_28" data-name="Path 28" class="cls-4" d="M27.551,61.7a.963.963,0,0,1-.2.349,2.89,2.89,0,0,1-.349.275h.991a.736.736,0,0,1-.275-.257A.97.97,0,0,1,27.551,61.7Z" transform="translate(15.957 -24.195)"/>
      <path id="Path_29" data-name="Path 29" class="cls-4" d="M8.611,17.239a8.62,8.62,0,1,1,8.611-8.629A8.639,8.639,0,0,1,8.611,17.239Zm0-16.891a8.262,8.262,0,1,0,8.262,8.262A8.274,8.274,0,0,0,8.611.349Z" transform="translate(38 26.177)"/>
    </g>
  </g>
</svg>
