<?xml version="1.0" encoding="utf-8"?>
<!-- Generator: Adobe Illustrator 22.0.0, SVG Export Plug-In . SVG Version: 6.00 Build 0)  -->
<svg version="1.1" id="Layer_1" xmlns="http://www.w3.org/2000/svg" xmlns:xlink="http://www.w3.org/1999/xlink" x="0px" y="0px"
	 viewBox="0 0 243.3 60" style="enable-background:new 0 0 243.3 60;" xml:space="preserve">
<style type="text/css">
	.st0{font-family:'CrimsonText-Regular';}
	.st1{font-size:39.1372px;}
</style>
<g>
	<text transform="matrix(1 0 0 1 70.4185 41.9407)" class="st0 st1">MelonMail</text>
</g>
<g>
	<g>
		<g>
			<path d="M30.4,59.5C14.1,59.5,0.9,46.3,0.9,30c0-16.3,13.2-29.5,29.5-29.5c16.3,0,29.5,13.2,29.5,29.5
				C59.9,46.3,46.6,59.5,30.4,59.5z M30.4,1.7C14.8,1.7,2.1,14.4,2.1,30c0,15.6,12.7,28.3,28.3,28.3C46,58.3,58.7,45.6,58.7,30
				C58.7,14.4,46,1.7,30.4,1.7z"/>
		</g>
	</g>
	<polygon points="18.6,22.2 36.8,22.2 27.4,28.4 	"/>
	<path d="M30.4,3.6C15.8,3.6,4,15.4,4,30c0,14.6,11.8,26.4,26.4,26.4c14.6,0,26.4-11.8,26.4-26.4C56.8,15.4,44.9,3.6,30.4,3.6z
		 M43.5,38.6H17.2V24l5.4,3.8l7.8,5.5l7.8-5.5l5.4-3.8V38.6z M43.5,22.3l-13.2,9.2l-13.2-9.2v-0.9h26.4V22.3z"/>
	<polygon points="18,25.6 22.1,28.5 24.6,30.3 18,34.6 	"/>
</g>
</svg>
