<?xml version="1.0" encoding="utf-8"?>
<!-- Generator: Adobe Illustrator 22.0.0, SVG Export Plug-In . SVG Version: 6.00 Build 0)  -->
<svg version="1.1" id="Layer_1" xmlns="http://www.w3.org/2000/svg" xmlns:xlink="http://www.w3.org/1999/xlink" x="0px" y="0px"
	 viewBox="0 0 603.7 575.6" style="enable-background:new 0 0 603.7 575.6;" xml:space="preserve">
<style type="text/css">
	.st0{fill:none;}
	.st1{fill:none;stroke:#BCBEC0;}
	.st2{fill:none;stroke:#A7A9AC;stroke-dasharray:2.9966,2.9966;}
	.st3{fill:none;stroke:#A7A9AC;stroke-miterlimit:10;}
	.st4{fill:none;stroke:#A7A9AC;stroke-miterlimit:10;stroke-dasharray:2.9784,2.9784;}
</style>
<g>
	<g id="Melon" transform="translate(2869 7739)">
		<g id="Border-01" transform="translate(-33 -33)">
			<circle class="st0" cx="-2534.4" cy="-7345.7" r="162.4"/>
			<circle class="st1" cx="-2534.4" cy="-7345.7" r="161.7"/>
		</g>
		<g id="Border-02" transform="translate(-69 -69)">
			<g>
				<circle class="st0" cx="-2498.4" cy="-7309.7" r="213.4"/>
			</g>
			<g>
				<circle class="st2" cx="-2498.4" cy="-7309.7" r="212.7"/>
			</g>
		</g>
		<path id="Path_25" d="M-2598.9-7404.7c-1.1-3.2-2.8-6.2-4.9-8.9c-2-2.1-4.8-3.2-7.6-3h-2.5c2.4,0.8,4.5,2.3,6.2,4.2
			c1.9,2.6,3.5,5.4,4.7,8.4l29.3,70c0.9-1.3,1.4-2.9,1.5-4.4c-0.2-1.8-0.7-3.6-1.5-5.2L-2598.9-7404.7z"/>
		<path id="Path_26" d="M-2542.2-7333.7h2.2c3,0,4.7-0.7,5.4-2.5c0.8-2.8,1.2-5.7,1-8.6v-61.4c0-4.9,0.5-8.4,1.2-10.1
			c-1.7,0.2-3,0.5-3.7,1.5c-0.8,0.9-1.3,2.2-1.2,3.5c-0.2,2.3-0.3,4.6-0.2,6.9v61.4c0,3-0.2,5.2-1,6.2
			C-2539.4-7335.5-2540.7-7334.4-2542.2-7333.7z"/>
		<path id="Path_27" d="M-2567.4-7482.1c-57.2,0-103.5,46.4-103.5,103.5c0,57.2,46.4,103.5,103.5,103.5
			c57.2,0,103.5-46.4,103.5-103.5C-2463.8-7435.8-2510.2-7482.1-2567.4-7482.1C-2567.4-7482.1-2567.4-7482.1-2567.4-7482.1z
			 M-2511.2-7416.3c-4.2,0-7.4,0.5-9.1,1.7c-1.7,0.9-2.8,2.7-3,4.7c-0.4,3.7-0.5,7.4-0.5,11.1v55c-0.1,2.2,0.3,4.4,1.2,6.4
			c0.7,1.5,2.1,2.6,3.7,3c2.6,0.7,5.2,1.1,7.9,1.2v3.5h-41.2v-3.4c3,0.2,6.1-0.3,8.9-1.5c1.6-0.7,2.8-2.2,3.2-3.9
			c0.4-2.7,0.5-5.4,0.5-8.1v-61.9l-31.8,78.4h-3.7l-31.1-75.9v52c-0.2,4.8,1,9.6,3.5,13.8c2.2,3.2,5.9,5.4,11.1,6.7v3.5h-32.3v-3.5
			c4.1-0.3,8-2.2,10.6-5.4c2.5-3,3.7-7.4,3.7-12.8v-58.9c-1.7-1.9-3.8-3.3-6.2-4.2c-2.5-0.9-5.2-1.3-7.9-1.2v-3.5h29.1l28.3,68
			l27.9-68h27.4v3.5H-2511.2z"/>
		<path id="Path_28" d="M-2609-7342.1c-0.6,1.7-1.5,3.3-2.7,4.7c-1.5,1.4-3,2.6-4.7,3.7h13.3c-1.5-0.8-2.8-2-3.7-3.5
			C-2607.9-7338.7-2608.7-7340.3-2609-7342.1z"/>
		<path id="Path_29" d="M-2567.4-7262.8c-63.6,0-115.6-52-115.6-115.9c0.1-63.9,52-115.5,115.9-115.4c63.9,0.1,115.5,52,115.4,115.9
			C-2451.9-7314.4-2503.6-7262.8-2567.4-7262.8z M-2567.4-7489.5c-61.3,0-110.9,49.7-110.9,110.9s49.7,110.9,110.9,110.9
			c61.3,0,110.9-49.7,110.9-110.9l0,0C-2456.2-7439.7-2506-7489.5-2567.4-7489.5L-2567.4-7489.5z"/>
	</g>
	<g>
		<g>
			<g>
				<line class="st3" x1="296.7" y1="3.6" x2="296.7" y2="5.1"/>
				<line class="st4" x1="296.7" y1="8.1" x2="296.7" y2="119.8"/>
				<line class="st3" x1="296.7" y1="121.3" x2="296.7" y2="122.8"/>
			</g>
		</g>
		<g>
			<g>
				<g>
					<line class="st3" x1="499.6" y1="494.2" x2="500.8" y2="495"/>
					<line class="st4" x1="503.4" y1="496.6" x2="597.8" y2="556.2"/>
					<line class="st3" x1="599.1" y1="557" x2="600.3" y2="557.8"/>
				</g>
			</g>
			<g>
				<g>
					<line class="st3" x1="103.6" y1="494.2" x2="102.3" y2="495"/>
					<line class="st4" x1="99.8" y1="496.6" x2="5.3" y2="556.2"/>
					<line class="st3" x1="4.1" y1="557" x2="2.8" y2="557.8"/>
				</g>
			</g>
		</g>
	</g>
</g>
</svg>
