<?xml version="1.0" encoding="utf-8"?>
<!-- Generator: Adobe Illustrator 22.0.0, SVG Export Plug-In . SVG Version: 6.00 Build 0)  -->
<svg version="1.1" id="Layer_1" xmlns="http://www.w3.org/2000/svg" xmlns:xlink="http://www.w3.org/1999/xlink" x="0px" y="0px"
	 viewBox="0 0 609.3 337.6" style="enable-background:new 0 0 609.3 337.6;" xml:space="preserve">
<style type="text/css">
	.st0{fill:#F8F8F8;stroke:#C9C9C9;stroke-miterlimit:10;}
	.st1{fill:none;stroke:#C9C9C9;stroke-miterlimit:10;stroke-dasharray:3;}
	.st2{fill:#171717;}
	.st3{font-family:'SourceSerifPro-Regular';}
	.st4{font-size:19.3192px;}
</style>
<g>
	<path class="st0" d="M218.9,57.4H48.7C33.4,57.4,21,45,21,29.7v0C21,14.4,33.4,2,48.7,2h170.2c15.3,0,27.7,12.4,27.7,27.7v0
		C246.6,45,234.2,57.4,218.9,57.4z"/>
	<path class="st1" d="M246.6,142.1h201.1c15.3,0,27.7-12.4,27.7-27.7"/>
	<path class="st1" d="M361.1,197.4H159.9c-15.3,0-27.7-12.4-27.7-27.7"/>
	<path class="st1" d="M361.1,85.5H159.9c-15.3,0-27.7-12.4-27.7-27.7"/>
	<path class="st1" d="M246.6,252.7h201.1c15.3,0,27.7-12.4,27.7-27.7"/>
	<text transform="matrix(1 0 0 1 43.236 34.4963)" class="st2 st3 st4">Fund Administrator</text>
	<path class="st0" d="M218.9,169.9H48.7c-15.3,0-27.7-12.4-27.7-27.7v0c0-15.3,12.4-27.7,27.7-27.7h170.2
		c15.3,0,27.7,12.4,27.7,27.7v0C246.6,157.4,234.2,169.9,218.9,169.9z"/>
	<text transform="matrix(1 0 0 1 73.2765 146.9777)" class="st2 st3 st4">Trading Desk</text>
	<path class="st0" d="M218.9,280.4H48.7C33.4,280.4,21,268,21,252.7v0c0-15.3,12.4-27.7,27.7-27.7h170.2c15.3,0,27.7,12.4,27.7,27.7
		v0C246.6,268,234.2,280.4,218.9,280.4z"/>
	<text transform="matrix(1 0 0 1 51.6295 257.5016)" class="st2 st3 st4">Risk Management</text>
	<path class="st0" d="M560.6,225.1H390.4c-15.3,0-27.7-12.4-27.7-27.7v0c0-15.3,12.4-27.7,27.7-27.7h170.2
		c15.3,0,27.7,12.4,27.7,27.7v0C588.3,212.7,575.9,225.1,560.6,225.1z"/>
	<text transform="matrix(1 0 0 1 440.5197 202.2389)" class="st2 st3 st4">Auditor</text>
	<path class="st1" d="M361.1,307.9H159.9c-15.3,0-27.7-12.4-27.7-27.7"/>
	<path class="st0" d="M560.6,335.6H390.4c-15.3,0-27.7-12.4-27.7-27.7v0c0-15.3,12.4-27.7,27.7-27.7h170.2
		c15.3,0,27.7,12.4,27.7,27.7v0C588.3,323.2,575.9,335.6,560.6,335.6z"/>
	<text transform="matrix(1 0 0 1 429.3829 312.7634)" class="st2 st3 st4">Custodian</text>
	<path class="st0" d="M560.6,114.4H390.4c-15.3,0-27.7-12.4-27.7-27.7v0c0-15.3,12.4-27.7,27.7-27.7h170.2
		c15.3,0,27.7,12.4,27.7,27.7v0C588.3,102,575.9,114.4,560.6,114.4z"/>
	<text transform="matrix(1 0 0 1 397.8527 91.5637)" class="st2 st3 st4">Operations Team</text>
</g>
</svg>
