<svg xmlns="http://www.w3.org/2000/svg" viewBox="3159 10861.787 34.742 24.436">
  <defs>
    <style>
      .cls-1 {
        fill: #4a4a4a;
      }
    </style>
  </defs>
  <g id="Youtube" transform="translate(2109 5839)">
    <path id="Path_46" data-name="Path 46" class="cls-1" d="M33.37,2.1C32.123.616,29.8,0,25.388,0H9.34C4.817,0,2.465.644,1.218,2.227,0,3.781,0,6.063,0,9.214v6.007c0,6.105,1.442,9.214,9.34,9.214H25.388c3.837,0,5.951-.532,7.338-1.848,1.414-1.344,2.016-3.557,2.016-7.366V9.214C34.728,5.881,34.63,3.6,33.37,2.1ZM22.293,13.051,15.011,16.86a1.132,1.132,0,0,1-.518.126,1.055,1.055,0,0,1-.574-.168,1.105,1.105,0,0,1-.546-.952V8.276a1.123,1.123,0,0,1,.532-.952A1.09,1.09,0,0,1,15,7.282l7.282,3.781a1.134,1.134,0,0,1,.6.994,1.07,1.07,0,0,1-.588.994Zm0,0" transform="translate(1050 5022.787)"/>
  </g>
</svg>
